<?xml version="1.0" encoding="UTF-8"?><svg id="Capa_1" xmlns="http://www.w3.org/2000/svg" viewBox="0 0 1031.81 476.59"><defs><style>.cls-1{fill:#53b32d;}</style></defs><path d="M415.1,450.73v-196.67h47.1c13.27,0,24.48,1.58,33.63,4.74,9.14,3.16,16.1,8.54,20.88,16.15,4.77,7.61,7.16,17.97,7.16,31.08,0,7.93-.73,15.05-2.19,21.37-1.46,6.31-3.93,11.7-7.4,16.15-3.48,4.45-8.3,7.89-14.45,10.32l27.44,96.88h-35.93l-23.79-90.08h-16.51v90.08h-35.94ZM451.03,338.08h11.17c6.96,0,12.51-1.01,16.63-3.03,4.13-2.02,7.08-5.26,8.86-9.71,1.78-4.45,2.67-10.16,2.67-17.12,0-9.87-1.82-17.28-5.46-22.22-3.64-4.94-10.56-7.4-20.76-7.4h-13.11v59.49Z"/><path d="M603.27,453.41c-13.92,0-25.01-2.59-33.26-7.77-8.25-5.18-14.17-12.62-17.72-22.34-3.56-9.71-5.34-21.2-5.34-34.48v-73.57c0-13.27,1.78-24.64,5.34-34.11,3.56-9.47,9.47-16.71,17.72-21.73,8.25-5.02,19.34-7.53,33.26-7.53s25.45,2.51,33.63,7.53c8.17,5.02,14.08,12.26,17.73,21.73,3.64,9.47,5.46,20.84,5.46,34.11v73.81c0,13.11-1.82,24.48-5.46,34.11-3.64,9.63-9.56,17.08-17.73,22.34-8.18,5.26-19.39,7.89-33.63,7.89ZM603.27,426.94c5.98,0,10.4-1.29,13.23-3.89,2.83-2.59,4.74-6.15,5.71-10.68.97-4.53,1.46-9.47,1.46-14.81v-90.56c0-5.5-.49-10.44-1.46-14.81-.97-4.37-2.88-7.81-5.71-10.32-2.83-2.51-7.25-3.76-13.23-3.76-5.67,0-9.95,1.26-12.87,3.76-2.91,2.51-4.86,5.95-5.83,10.32-.97,4.37-1.46,9.31-1.46,14.81v90.56c0,5.34.45,10.28,1.34,14.81.89,4.53,2.79,8.09,5.7,10.68,2.91,2.59,7.28,3.89,13.11,3.89Z"/><path d="M739.96,453.41c-13.92,0-25.01-2.59-33.26-7.77-8.25-5.18-14.17-12.62-17.72-22.34-3.56-9.71-5.34-21.2-5.34-34.48v-73.57c0-13.27,1.78-24.64,5.34-34.11,3.56-9.47,9.47-16.71,17.72-21.73,8.25-5.02,19.34-7.53,33.26-7.53s25.45,2.51,33.63,7.53c8.17,5.02,14.08,12.26,17.73,21.73,3.64,9.47,5.46,20.84,5.46,34.11v73.81c0,13.11-1.82,24.48-5.46,34.11-3.64,9.63-9.56,17.08-17.73,22.34-8.18,5.26-19.39,7.89-33.63,7.89ZM739.96,426.94c5.98,0,10.4-1.29,13.23-3.89,2.83-2.59,4.74-6.15,5.71-10.68.97-4.53,1.46-9.47,1.46-14.81v-90.56c0-5.5-.49-10.44-1.46-14.81-.97-4.37-2.88-7.81-5.71-10.32-2.83-2.51-7.25-3.76-13.23-3.76-5.67,0-9.95,1.26-12.87,3.76-2.91,2.51-4.86,5.95-5.83,10.32-.97,4.37-1.46,9.31-1.46,14.81v90.56c0,5.34.45,10.28,1.34,14.81.89,4.53,2.79,8.09,5.7,10.68,2.91,2.59,7.28,3.89,13.11,3.89Z"/><path d="M822.75,450.73l3.4-196.67h37.15l27.92,136.21,29.14-136.21h35.93l3.64,196.67h-26.71l-2.91-136.69-27.92,136.69h-21.61l-28.41-137.18-2.67,137.18h-26.95Z"/><path class="cls-1" d="M111.41,110.23l.46-.04c1.51.42,4.23,1.77,8.16,4.08.69-.06,1.51.77,2.43,2.47l3.04.09,3.57-1.82,2.2-.19,13.11,10.07,7.99,6.08,14.92,12.13c.62-.05,1.52.49,2.71,1.63.07.85-2.56,1.82-7.91,2.9.07.77-1.51,1.41-4.73,1.92-.69.06-2.87-.88-6.54-2.82l-4.05.35-.75.76c.08.93,2.03,1.89,5.85,2.88l8.98,4.12.78.98.07.81-.35.03c-5.21-1.8-9.53-2.79-12.97-2.97l-.39-.43c-.06-.69-.32-1.02-.78-.98l-6.37.55-2.71-1.63-.68,1.57c-.69.06-4.55-1.36-11.56-4.25-.39-.98-2.06-1.84-5.01-2.6-.08-.93-1.64-1.41-4.67-1.46-2.94,2.82-4.36,4.92-4.24,6.31-.54.05-1.76,1.67-3.66,4.86-1,.17-1.47.56-1.42,1.17l.51,1.82c-2.1,2.67-4.17,6.23-6.19,10.68l-.35.03c-.62.05-1.05-.41-1.29-1.41l-.69.06c-.96.55-1.4,1.33-1.32,2.33l.38.32.43-.39,1.04-.09.13,1.5-7.9,12.57-15.38,20.45.03.35c4.56,3.26,6.9,5.67,7.03,7.21.99.61,1.96,2.01,2.93,4.18,2.4,1.66,3.69,3.57,3.88,5.73.54-.05,1.62,1.22,3.24,3.8.46-.04,1.06,1.04,1.79,3.23,1.47-.13,2.44.76,2.91,2.66,9.36,10.31,14.53,15.74,15.51,16.27l7.19,9.06,2.01,1.69.35-.03c.38-.11,1.25-3.06,2.62-8.86.31-.03,1.63-3.25,3.95-9.67.46-.04,2.32-4.67,5.57-13.89l1.49-16.57,2.18-5.79-.38-.32-3.01.26c-.42.5-1.86,1.02-4.3,1.54l-4.33-1.49c.04.46-1.6,1.23-4.93,2.29.04.46-1.76,1.24-5.4,2.33l-.5-.42-.03-.35c.02-1.56.42-2.83,1.19-3.83l-.64-7.41c1.27-1.51,3.14-2.8,5.61-3.87l-.28-3.24-.79-1.1-.06-.69.31-.49c1.73-.69,2.52-1.85,2.38-3.47s2-2.5,6.4-2.88c2.49-.91,5.2-1.5,8.13-1.75l1.04-.09,1.09-.91.69-.06,1.23.71,1.5-.13.97-.9,1.89.3,1.47-.59c.05.54,4.67.92,13.86,1.14,7.93,1.81,11.93,3.17,12.01,4.1.21,2.47,1.68,3.74,4.41,3.82,2.66,2.88,6.14,5.81,10.44,8.78l.06.69c-.99,1.17-2.02,3.64-3.1,7.38-1.23,1.97-2.05,4.14-2.47,6.51-2.02,3.6-3.24,6.58-3.66,8.94-1,.09-1.43.98-1.29,2.68-1.5,5.11-2.92,8.96-4.25,11.56-.55,4.48-1.88,8.83-4.01,13.06l-1.37,5.72c-1.07,2.04-1.94,4.99-2.62,8.86-.69.06-1.74,2.37-3.14,6.92-1.13,1.34-1.63,2.78-1.49,4.33-.54.05-1.69,2.48-3.45,7.29-.69.14-1.53,2.07-2.53,5.82-2.92,3.98-4.35,6.36-4.28,7.13l-2.01,2.39.1,1.16c2.06.45,3.12.97,3.17,1.59l.03.35c.04.46-.93.94-2.91,1.42.03.31-1.65,1.19-5.02,2.65l-.63.75-1.5.13c-1.4-.89-2.79-1.28-4.18-1.16-4.38,7.84-8.26,11.91-11.66,12.2-2.01-.76-4.66-1.27-7.95-1.53-.03-.39-1.18-.64-3.45-.75-.94-1.94-1.65-2.89-2.11-2.85l-.69.06-3.2,2.14-1.5.13c-2.46-.64-4.98-2.29-7.54-4.95-.26-1.22-.93-1.79-2.01-1.69l-8.77-11.14c-.07-.85-1.62-2.97-4.63-6.37-1.44-3.14-4.37-7.01-8.81-11.6-3.69-4.03-8.01-9.49-12.96-16.38-.07-.85-1.24-2.73-3.52-5.64l-3-4.99-3.9-5.96c-.12-1.39-1.28-3.16-3.49-5.3-.15-1.7-2.18-5.02-6.11-9.97l-5.14-8.19c-1.15-2.54-2.61-5.02-4.37-7.44-.07-.77-.78-1.84-2.14-3.2-.05-.62.42-1.01,1.42-1.17,4.4-.38,6.57-.95,6.5-1.73l-.64-3.33,1.1-.79,2.23.16.32-.38-.06-.69c-.05-.54-3.15-1.79-9.3-3.75l-.03-.35c.03-.55,1.2-1.39,3.52-2.52l1.03-1.6-7.13-4.28-.06-.69,5.7-4.22,2.23.16c1.76-2.09,3.42-3.21,4.96-3.34.7-1.85,1.8-3.46,3.32-4.83l1.39-.12,1.6,1.03.74-.88-.09-1.04c-.05-.62-1.1-1.03-3.14-1.25l-.1-1.16c1.39-.12,2.1-1.77,2.14-4.97l1.44-.94,1.54.33c-.05-.62,1.25-1.35,3.89-2.2l.31-.49-.03-.35-2.36-1.66c.08-2.73.58-4.13,1.5-4.21l.35-.03c.62-.05,1.09.92,1.42,2.91l-1.07,1.14.03.35.88.74c1.18-.72,1.69-2.01,1.53-3.86,1.5-.67,2.29-1.36,2.39-2.07l-.03-.35-2.01-1.69-.04-.46c1.59-2.31,3.23-3.54,4.93-3.69-.14-1.62,1.62-2.9,5.27-3.84l1.09-4.99,1.79-.85,1.53.22c.39-4.47,2.97-8.81,7.74-13.03-.05-.62,1.64-2.63,5.08-6.03l1.85-.16,1.54.33,3.95-1.51c3.4-.29,5.96.62,7.7,2.72l4.95.62c-.74-4.13-1.77-6.14-3.08-6.03l-3.99-3.04-.06-.69.62-.87,4.05-.35,1.48-.48.38.32.35-.03,5.44-1.87ZM42.46,184.39l.1,1.16.75.63.43-.39-.06-.69-.88-.74-.35.03ZM44.37,206.62l.29,3.36.79,1.1.41,4.75.46-.04-.38-8.48-.48-1.48-.46.04-.63.75ZM45.8,219.21l-.32.38.26,3.01.35-.03.74-.88-.16-1.85-.87-.62ZM49.45,218.19l-.51,2.26.48,1.48-.6,1.1.07.81,1.51,1.27.75-.76-.45-5.21-1.25-.94ZM46.32,181.84l.16,1.85-.51,2.26c.42,1.21.82,1.8,1.2,1.76l.72-1.11-.36-4.17-.87-.62-.35.03ZM48.74,209.97l-.32.38.04.46.75.63.75-.76-1.23-.71ZM49.42,178.54c.11,1.24-.05,2.14-.47,2.72l.57,6.6.48,1.48-.22,1.53.13,1.5.78.98.04.46-.6,1.1.03.35.48,1.48-.12,2.69.83,9.61c.5.35.84,1.68,1.04,3.99l.35-.03-1.94-22.57-1.17-9.58.22-1.53-.07-.81-.35.03ZM54.36,166.92l-.44,3.07,1.04,3.99-.25,1.19.48,1.48.96,15.19.29,3.36.63,3.21-.31.49.09,1.04.35-.03-.03,3.73,1.37,11.89.93,14.85,1.16-.1.94-1.25-.51-9.99-1.14-1.07.51-2.26-.67-7.76-1.14-1.07.32-.38-.39-4.51.45-2.95c-.46.04-.73-.32-.79-1.1l.26-1.07c-.46.04-.73-.32-.79-1.1l.88-1.94-.13-1.5-.42-8.94-1.1-8.77-.2-2.32c-.77-.79-1.24-2.23-1.42-4.31l-.1-1.16-.81.07ZM59.57,231.43l.07.81.7,4.02-.32.38.03.35.45,1.13-.19,1.88c.37,2.46.86,3.66,1.48,3.6l.78-3.1-.38-.32.09-7.12c-.97-.38-1.48-.96-1.55-1.73l-1.16.1ZM64.07,240.37l.67,3.67-1.41,1.29-1.95-1-.62.87.09,1.04,1.42,2.91-.27,2.24.87.62.63-.75-.42-4.86.81-.07,1.14,1.07.19,2.2.81-.07-.19-2.2.19-1.88-.54-2.17-.19-2.2-.88-.74-.35.03ZM61.36,204.81l.54,6.25.64,3.33-.03,3.73.45,5.21.7,4.02-.32.38.04.46.38.32.03,8.51.07.81.75.63.46-.04.13-2.58-.94-1.44-.09-10.49-1.18-13.66-.83-5.53-.81.07ZM58.27,168.92l.09,1.04.81-.07-.09-1.04-.81.07ZM58.65,173.32l.22,2.55.81-.07-.22-2.55-.81.07ZM59.15,179.22l.29,3.36,1.04,8.07.81-.07-.03-.35-1.3-11.08-.81.07ZM59.01,163.96l.38.32,1.16-.1-.13-1.5-.46.04-.94,1.25ZM69.19,221.27l.51,1.82.69-.06-.51-1.82-.69.06ZM68.13,196.76l-.38,3.76.35-.03c.46-.04.75-1.19.87-3.46l-.49-.31-.35.03ZM68.49,209.09l.16,1.85.35-.03.62-.87-.03-.35-.75-.63-.35.03ZM72.85,259.79l.1,1.16.69-.06-.04-.46-.75-.63ZM67.81,171.36l.88.74-.07-.81-.81.07ZM68.34,168.05l.75.63-.06-.69-.69.06ZM70.08,180.15l.07.81.69-.06-.07-.81-.69.06ZM71.86,200.87l.04.46.75.63,1.85-.16c3.32-3.01,5.27-5.16,5.86-6.45,1.62-.14,2.49-1.34,2.61-3.61,1.05-.4,2.98-2.94,5.76-7.61l-.38-.32-.46.04c-1.93.17-4.63,3.12-8.1,8.86-1,.09-3.64,2.8-7.93,8.15ZM76.47,236.74l-.72,1.11.04.46,1.72,2.42.81-.07c-.46-2.68-1.08-3.99-1.85-3.92ZM71.03,161.41l.32,3.7-.59,1.22.45,5.21.51,1.82,1.16-.1-1.03-11.92-.81.07ZM75.95,226.64l.2,2.32.75.63.43-.39-.29-3.36-.46.04-.63.75ZM73.08,185.14l.29,3.36.81-.07-.29-3.36-.81.07ZM78.99,244.34c1.08.76,1.99,2.78,2.74,6.06,1-.09,1.58.76,1.73,2.53,4.04,4.47,6.29,7.62,6.76,9.45.79,1.1,1.89,2.02,3.27,2.75l1.36-.47.9.97.1,1.16-.72,1.11.07.81c.06.69,1.51,1.31,4.36,1.84l1.65,2.89,1.38-1.63-3.81-4.92-.16-1.85c-1,.09-2.34-1.04-4.02-3.39-2.16-1.6-3.93-3.7-5.32-6.31l-.38-.32-.06-.69c-1,.09-1.59-.87-1.76-2.88-.54.05-1.01-.88-1.41-2.79-1.85.16-3.4-2.08-4.66-6.71l-.69.06-1.32,2.33ZM70.57,142.44l.06.69.35-.03,1.07-1.14-.38-.32-.46.04-.63.75ZM74.97,171.91l-.59,1.22.09,1.04.88,2.14-.61,10.55c.5,2.21.98,3.3,1.45,3.26l.62-.87-.73-8.45c.68-1.15.93-2.8.74-4.96l-1.32-1.75.72-1.11-1.26-1.06ZM71.96,150.48l1.23.71.35-.03.58-2.73-1-2.13-.09-1.04-.35.03c-.77.07-1.01,1.8-.72,5.19ZM73.53,155.24l.19,2.2c-.54.9-.83,2.05-.87,3.46l1.04,6.67.03.35.75.63.32-.38-.67-7.76.55-3.08-.65-2.16-.69.06ZM78.22,223.18l.03.35.87.62.6-1.1-.52-6.02-.35.03c-.77.07-.98,2.11-.64,6.12ZM81.18,257.56l.32,3.7.88.74.28-4.92-.38-.32-.35.03-.75.76ZM78.1,212.34l-.32.38.19,2.2,1.04-.09-.16-1.85-.75-.63ZM77.17,167.64l.09,1.04,1.16-.1-.03-.35-.75-.63-.46.04ZM77.31,163.9l.75.63.32-.38-.03-.35-1.04.09ZM81.58,170.18l-.23,2.7.19,2.2c-.63.75-1.17,3.06-1.62,6.9l.81-.07c-.09-1.08.56-3.39,1.97-6.93l-.42-4.86-.69.06ZM77.93,154.86l.16,1.85.81-.07-.1-1.16-.87-.62ZM78.59,135.45l.09,1.04-.58,2.73.81-.07.57-1.56-.19-2.2-.69.06ZM81.61,166.44l-.31.49.03.35.75.63.32-.38-.03-.35-.76-.75ZM87.07,233.96l1.98,1.35.31-.49-.06-.69-1.26-1.06-.35.03-.62.87ZM87.61,240.21l.16,1.85.76.75.31-.49-.25-2.89-.35.03-.63.75ZM88,244.73l.25,2.89.69-.06-.19-2.2-.75-.63ZM84.74,181.1l.39.43,1.16-.1.62-.87-.06-.69c-1.46.2-2.16.62-2.11,1.23ZM99.75,156.37l-4.19,8.17c-.5,1.44-1.17,2.24-2.01,2.39.1,1.16-.88,2.87-2.94,5.15l-3.54,6.25.87.62c1.39-.97,2.35-2.53,2.86-4.68,1.54-.13,2.25-.93,2.13-2.4.77-.14,1.6-1.73,2.51-4.76,3.34-4.56,4.98-7.19,4.92-7.89l.65-1.92-1.25-.94ZM93.18,245.33l2.44,1.31.16,1.85-.71,1.23.9.97.35,4.05c.54-.05.84-2.05.88-6.02-.46.04-.8-1.17-1.01-3.64l-1.22-.59-1.04.09-.75.76ZM93.33,237.51l1.79,3.23-.72,1.11.1,1.16.87.62.63-.75-.83-9.61-.76-.75c-.54.05-.7,1.31-.49,3.77-.46.04-.66.45-.59,1.22ZM88.92,182.26l.38.32.81-.07c3.2-2.61,4.71-4.84,4.56-6.69l-.35.03c-3.74,2.65-5.54,4.79-5.4,6.41ZM96.99,276.02l.83,5.53.8,9.26.87.62.35-.03.57-1.56-.25-2.89-.76-.75.13-2.58-.51-5.9c-.11-1.31-.56-2.01-1.35-2.1l-.32.38-.35.03ZM96.09,257.44l1.25.94-.09-1.04-1.16.1ZM85.61,130.3l2.46,28.59c.85-.07.7-7.17-.43-21.3l.33-1.54-1.06-2.82-.26-3.01-1.04.09ZM94.13,173.65l.38.32.46-.04,1.36-.47-.1-1.16c-1.45.28-2.15.73-2.1,1.35ZM90.52,127.66l.16,1.85.81-.07-.16-1.85-.81.07ZM91.5,139.12l.13,1.5.81-.07-.13-1.5-.81.07ZM103.24,275.49l.09,1.04c1.41,1.9,2.88,2.78,4.43,2.65l-.03-.35.22-1.53c-1,.09-1.96-.68-2.88-2.32l-.69.06-1.13.45ZM109,267.88l.75.63,1.16-.1-.03-.35-1.25-.94-.63.75ZM111.55,271.74c.05.62.95,1.05,2.68,1.29l.43-.39c-.77-1.72-1.35-2.57-1.73-2.53l-1.38,1.63ZM108.65,143.24l-3.45,3.33c.07.77-.57,1.95-1.91,3.55l.87.62.35-.03,5.08-6.03-.06-.69-.88-.74ZM119.28,292.41l.38.32-.62,9.03.38.32.35-.03,1.32-2.33-.52-6.02.32-.38-.38-.32-.06-.69.31-.49-.03-.35-.38-.32-.35.03c-.54.05-.78.46-.71,1.23ZM117.5,275.78l.73,4.37-.03,3.73.75.63.16,1.85,1.16-.1-.19-2.2-.67-3.67.35-.03-.38-.32-.26-3.01.32-.38-.38-.32.03-3.73-.06-.69-.51-1.82c-.54.05-.69,1.42-.46,4.12l-.57,1.56ZM105.09,127.57l.81-.07-.07-.81-.74.88ZM118.07,260.8l.22,2.55c.07.77.6,1.11,1.6,1.03.97-.47,1.44-.9,1.41-1.29l-.1-1.16-2.5-2-.62.87ZM109.1,126.76l2.02,5.89.81-.07-.52-6.02-.87-.62-.35.03-1.1.79ZM125.7,258.63l.06.69c1.78-.15,2.53-1.81,2.25-4.98l-.07-.81-.46.04c-.46.04-1.06,1.72-1.78,5.05ZM132.4,297.23l.19,2.2.69-.06-.13-1.5-.75-.63ZM123.98,195.33l.03.35,1.26,1.06.62-.87-.75-.63-1.16.1ZM131.81,272.68l.03.35.69-.06-.03-.35-.69.06ZM129.69,244.05l.07.81.75.63.46-.04-.13-1.5-1.16.1ZM121.89,139.89l.38.32.35-.03.63-.75-.38-.32-.35.03-.63.75ZM128.72,124.37l.16,1.85-.16,2.23.03.35.35-.03.48-2.61-.16-1.85-.69.06ZM143.07,295.15l.07.81.75.63,1.06-1.26-.06-.69-.87-.62-.95,1.13ZM133.88,184.33l.77,8.91.76.75.46-.04-.66-2.28,1.32-2.33c-.04-.46-.41-.66-1.1-.6l-.49-.31-.36-4.17-.69.06ZM140.46,260.74l.32,3.7.69-.06-.26-3.01-.75-.63ZM141.31,270.69l1.22.59,2.01-2.39-.03-.35-.87-.62-2.33,2.77ZM130.88,145.41l.04.46.81-.07-.04-.46-.81.07ZM140.39,255.85l.13,1.5.74-.88-.87-.62ZM131.56,131.59l-.61,10.55.49.31.35-.03c.31-.03.82-2.67,1.53-7.95l-1.42-2.91-.35.03ZM140.66,249.52l-.43.39.03.35c.04.46.85.78,2.41.96l.31-.49-.03-.35c-.04-.46-.8-.75-2.29-.85ZM136.79,196.45l-.44,3.07.03.35.75.63,1.26-3.02-1.6-1.03ZM131.01,121.14l.2,2.32-.32.38.44,1.01,1.07-1.14-.23-2.66-1.16.1ZM140.17,184.26l.22,2.55-.19,1.88.54,2.17-.16,2.23c1.12,1.3,1.72,2.38,1.79,3.23l1.16-.1-.55-1-.06-10.14-1.25-.94.71-1.23-.13-1.5-.81.07-1.28,2.79ZM143.32,220.84l.23,2.66-.1,2.92.61,2.98.19,2.2.88.74,1.56-3.52-.51-1.82-.13-1.5c-.77.07-1.18-.13-1.22-.59l-.07-.81.29-4.81-.35.03-1.39,1.52ZM135.72,127.15l1.13.95.16,1.85c.05.54-.43.85-1.44.94l.22,2.55.46-.04c1.37-1.28,1.96-2.93,1.79-4.94-.44-1.52-.89-2.26-1.36-2.22l-.35.03-.62.87ZM135.99,135.64l.45,5.21c1.08-.09,1.79.86,2.11,2.85l-.95,1.13.07.81c.04.46.68.64,1.91.54l.03.35-1.03,1.6.03.35.88.74.69-.06.44-3.07-.44-1.01.74-.88-.32-3.7c-1.23.11-1.87-.07-1.91-.54l-.29-3.36c-.69.06-1.5-.26-2.41-.96ZM142.02,205.68l.29,3.36.46-.04c.67-.29.96-1.05.85-2.29l-1.14-1.07-.46.04ZM142.4,210.19l.44,5.09c1.9,1.31,2.91,2.63,3.02,3.94l1.04-.09-.13-1.5-2.2-3.89c-.69.06-1.06-.18-1.11-.72l-.25-2.89-.81.07ZM145.32,238.63l-.43.39.1,1.16,1.53.22.32-.38-.03-.35-1.49-1.04ZM145.7,243.03l-.42.5.16,1.85.46-.04.62-.87-.06-.69-.76-.75ZM146.9,262.4l.16,1.85,1.63,1.38.81-.07-.13-1.5-1.32-1.75-1.16.1ZM147.38,267.96l.03.35.94,1.44.69-.06.19-1.88-1.11-.72-.74.88ZM142.19,202.28l.39.43.35-.03.62-.87-.38-.32-.35.03-.63.75ZM147.42,250.81l-.54,1.91c1.38,1.59,2.12,3.01,2.23,4.24l.35-.03.63-.75-.07-.81c-1.04-1.23-1.62-2.54-1.74-3.93l-.06-.69-.81.07ZM147.51,182.81l.03.35,1.32,1.75-.5,2.38.22,2.55c.85-.07,1.39.74,1.61,2.43l.46-.04.32-.38-.16-1.85-1.25-.94.12-2.69-.25-2.89.71-1.23c-.04-.46-.44-.66-1.22-.59-.98.4-1.45.79-1.42,1.17ZM150.67,219.51l.38,4.4,1.29-2.68-.51-1.82-1.16.1ZM149.83,200.22l-.03,3.73.38.32.35-.03.32-.38.35-.03-.51-1.82-.16-1.85-.69.06ZM144.3,127.93l-.32.38.38.32.16,1.85.23,6.74.51,1.82-.16,2.23.6,2.86-.62.87.03.35.75.63,1.04-1.49-1.35-15.63-1.25-.94ZM149.54,196.86l.69-.06-.07-.81-.62.87ZM151.16,207.57l.03.35.87.62.32-.38-.03-.35-.38-.32-.81.07ZM155.57,180.25l-.77,8.7.54,2.17.06.69-.15,2.35.38.32.03.35-.06,3.39.06.69.76.75c.54-.05.78-.45.71-1.23l.32-.38.35-.03.87.62c-.03,3.27-.78,4.96-2.24,5.09l.03.35.45,9.29-1.29,2.68.2,10.48.38.32.35-.03.75-.76-.62-1.81c-.29-5.18.11-7.82,1.18-7.92l.49.31.38,4.4c-.5.51-.73,2.39-.68,5.66l.67,3.67-.32.38.04.46.47,1.36.16,1.85-.31.49.44,1.01-.25,1.19.48,1.48-.26,1.07.67,3.67.39,8.6,1.22.59.35-4.11-.38-.32.25-1.19-1.23-10.27.15-6.43-.38-.32-.35.03c-.21-5.11.02-8.36.68-9.74l-.94-1.44c.09-.78.63-1.69,1.63-2.71l-.48-5.56c-.05-.54-.57-.77-1.57-.68l-.38-.32-.06-.69c-.05-.54.43-.85,1.44-.94l.32-.38-1.62-18.87-1.17-1.42-.03-.35.59-1.22-.35-4.05-1.63-1.38-.69.06ZM152.75,182.71l-.15,6.43,1.04-.09-.48-5.56.43-.39-.04-.46-.81.07ZM159.04,255.76l-.32.38.03.35.45,1.13-.63.75.35,4.05.35-.03.62-6.35-.49-.31-.35.03ZM150.11,134.42l.61,7.06c1.03,2.94,1.89,4.39,2.59,4.33l.81-.07c.69-.06.87-2.09.52-6.11l-.25-2.89-.76-.75-1.12.56-.95-2.95-.81.07-.63.75ZM161.76,256.22l.32,3.7c.39-.03.64-1.18.75-3.45l-.38-.32-.69.06ZM158.66,212.06l.69-.06.2,2.32-1.04.09.15-2.35ZM161.13,227.24l.12,1.39.76.75.32-.38-.23-2.66-.35.03-.62.87ZM162.08,190.89l1.14,1.07.09,1.04c.15,1.78.04,3.18-.34,4.23l.51,1.82.81-.07c-.03-3.03.19-4.56.65-4.6l.91,1.09.19,2.2c-.56,2.46-1.58,5.15-3.04,8.07l.29,3.36-.3,1.89.49.31.35-.03.95-1.13-.29-3.36.74-.88.39.43c.13,4.27,0,7.11-.43,8.55l.39,4.51.46-.04,1.78-.97-.25-2.89c-.05-.54.28-.84.97-.9l.32-.38-.06-.69c-1.02-1-1.57-1.96-1.65-2.89l-.61-7.06c.84-1.08,1.22-2.09,1.14-3.01l-.04-.46-.51-1.82c.08-2.73.35-4.11.81-4.15-.31-3.55-1.12-5.85-2.46-6.9l.6-1.1c-.75-.56-1.19-1.65-1.33-3.27-.46.04-.95,1.56-1.47,4.56-.93.08-1.33,1.24-1.22,3.49ZM163.65,213.14l.76.75.31-.49-.03-.35-1.04.09ZM166.23,243.13l.36,4.17.75.63.59-1.22-.38-4.4-.69.06-.63.75ZM165.91,231.26l.38.32.35-.03-.44,3.07.69-.06.49-3.77,1.16-4.18-.07-.81-.87-.62c-.61.13-1.17,2.16-1.69,6.09ZM158.82,140.79l.29,3.36c.04.46.69.8,1.95,1l.58-2.73c-.67-1.5-1.36-2.29-2.07-2.39l-.75.76ZM169.58,226.51l.32,3.7-.6,1.1.32,3.7-.19,1.88.38.32.35-.03.32-.38.35-.03-.38-.32c0-2.8.23-4.57.71-5.31l-.54-2.17.19-1.88-1.22-.59ZM178.07,195.11l.38.32.46-.04.63-.75-.38-.32-.35.03-.75.76ZM179,201.79l.16,1.85c.06.69,1.35,1.21,3.86,1.53,1.06-1.18,1.55-2.74,1.46-4.67l1.07-1.14-.07-.81-.75-.63c-2,.17-3.92,1.47-5.73,3.88Z"/><path class="cls-1" d="M245.32,97.07c2.11,1.06,4.45,1.6,7.02,1.61,1.59,3.13,4.89,5.72,9.88,7.78l17.02,13.46,15.46,10.21,19.39,12.56c4.55,4.04,9.73,7.33,15.54,9.86,4.33,1.57,7.07,3.09,8.2,4.54,2.73.93,4.68,2.01,5.88,3.23l.06.69-2.49.91-.87-.62-.46.04-1.29,1.28.03.35,5.27,4.33,1.27-.11c1-.09,2.16-.65,3.47-1.7,1.7-.15,2.63.75,2.8,2.67l3.33,3.45,2.78,2.44.06.69c-.79,1.7-3.25,3.27-7.41,4.72-1.31,1.05-4.55,2.69-9.72,4.92l-.31.49.06.69,1.4,1.4.09,1.04c-1.12,1.42-5.03,3.39-11.74,5.91l-8.86,4.14-2.47,2.43.19,2.2c1.72,1.95,4.27,6.2,7.63,12.75.62-.05,1.01.93,1.19,2.93,1.34,1.05,2.32,2.6,2.97,4.64.93-.08,2.32,2.13,4.19,6.64l1.49,1.04.19,2.2c.85-.07,1.82,1.21,2.9,3.83,3.22,4,4.93,7.12,5.12,9.36.93-.08,2.09,1.3,3.5,4.13.93-.08,1.96,1.58,3.11,4.98,1.16-.1,2.16,1.56,3,4.99,1.92,1.47,3.68,3.92,5.3,7.36l-.63.75c-.93.08-1.93-1.19-3.01-3.82-1.16.1-1.76-.08-1.8-.55l.33-1.54-2.08-2.5-.75-.63.32-.38-.03-.35c-.85.07-1.52-1-2.03-3.21l-4.98-6.34.26-1.07c-1.39.12-2.86-2.01-4.4-6.39-.69.06-1.99-1.93-3.9-5.96l-2.47-1.65.15-2.35c-.38.03-.84-.78-1.38-2.45-.93.08-1.45-.61-1.58-2.08-.38.03-1.03-1.15-1.94-3.56-1.88-1.94-3.6-4.39-5.18-7.37l-1.04-2.59c-.54.05-1.06-1.04-1.56-3.25-.69.06-1.38-.73-2.07-2.39l-.35.03-.32.38.03.35c.29,2.46.63,3.68,1.01,3.64l.62.41.35-.03-.23,1.42c.09,1,1.36,2.64,3.81,4.92l-.22,1.53c1.01,2.64,2,4.3,3,4.99l1.15,2.47.1,1.16c1.16-.1,1.83.97,2.03,3.21,2.85,3.33,5.39,7.47,7.6,12.41.95.23,2.14,1.84,3.56,4.82l1.37,1.05-.83,1.24c2.58,1.96,5.1,5.47,7.55,10.55,1.47,1.74,3.54,3.66,6.21,5.76.19,2.16,1.41,3.3,3.68,3.42l1.29-1.28.58-.05c.77-.07,1.43,1.28,1.98,4.03,1.13.45,2.11,1.96,2.96,4.53,1.08-.09,3.27,2.71,6.56,8.42l19.44,22.58.1,1.16c.04.46-.63.75-2.02.87l-2.14.88.07.81.84,4.36c-4.25,1.22-7.06,2.82-8.45,4.81l-4.2,2.69.06.69c4.14,3.84,6.25,6.27,6.34,7.27.07.85-1.99,2.15-6.19,3.92-1.74,2.4-3.42,3.68-5.04,3.82l-1.97.17c-1.47-.81-3.02-2.54-4.65-5.2-1.82-1.24-4.04-4.04-6.67-8.41l-8.62-13.49c-3.55.31-5.36,0-5.44-.93-7.46-9-11.24-14.04-11.33-15.12l-6.62-9.11-.61-2.98c-1.89-1.24-2.94-3.01-3.14-5.33-3.83-3.87-5.83-6.81-6.01-8.81-1.32-.04-2.99-2.27-5.01-6.68-1.01-.85-1.58-2.04-1.71-3.58-1.2-.44-2.94-2.51-5.2-6.2-.08-.93-1.8-3.26-5.15-7.02l-.07-.81.95-1.13c-1.9-.38-3.32-1.5-4.25-3.37-.62-2.67-1.47-3.96-2.55-3.86-3.49-6.23-5.3-10.08-5.43-11.54-2.53-2.35-3.89-4.6-4.08-6.76l-.16-1.85-.81.07c-6.07,2.62-9.55,4.67-10.43,6.15l1.5,2.55.06.69,2.36,12.51-.37,1.08,3,9.07.23,2.66c2.17,7.98,3.93,13.15,5.3,15.52l.88.74.09,1.04-.77,4.61.38.32.03.35c.23,2.7-1.74,5.12-5.9,7.27l-5.35,4.19-2.2.19-16.3,4.32c-1.39.12-2.37.48-2.94,1.07l-9.72.84-1.34-.7-3.01.26c-2.08.18-3.23-.96-3.44-3.44l4.51-4.47-.13-1.5c-1.31.11-3.56-.32-6.76-1.28-2.08.18-3.2-.58-3.34-2.28l-1.84-2.41c-1.77.15-3.26-1.74-4.45-5.68l2.11-1.23,2.11.17.43-.39-.9-10.42c-.18-2.08-.69-3.52-1.54-4.3l-.16-1.85-1.19-7.01.55-.4-.03-.35-.62-.41.26-3.75-.16-1.85.6-1.1-.07-.81-.78-.98-.07-.81.6-1.1-.07-.81-2.06-3.55-.41-4.75-1.03-1.08-.13-1.5.84-1.12-.03-.35c-1.16-.83-1.84-2.41-2.04-4.72l-.13-1.5c-.62.05-1.27-2.11-1.96-6.48l.42-.5.46-.04,2.18.98,2.1-1.35,1.49,1.04-.42,1.9.61.3,1.27-.11,1.68-.84-.16-1.85-.78-3.66.2-3.05c-.69.06-1.2-.4-1.52-1.39l1.11-3.36-.59-1.47.97-.9-.09-1.04-1.14-1.07-.29-3.36c-.57-.34-1.12-1.77-1.65-4.29-.62.05-1.09-.53-1.43-1.74l1.59-.49c-.13-1.47-1.04-2.13-2.74-1.98l-.04-.46c-.03-1.24.23-1.89.77-1.93-.27-3.16-1.45-4.66-3.53-4.48l-2.18-.98-2.07,1.69c-.62.05-.96-.3-1.03-1.08-.08-.93,1.45-1.68,4.59-2.26-.04-.46.52-.74,1.68-.84l.43-.39-.07-.81-1.28-1.29-.13-1.5,1.03-1.6-.16-1.85c-1.15-.75-2.03-2.31-2.62-4.67l.37-1.08-.97-5.86-.07-.81c-.35-4.01-.2-7.76.43-11.23l-1.48-.92-.1-1.16,1.52-2.7-.48-1.48.22-1.53-1.37-1.05.84-1.12-1.06-1.43,1.11-1.96-.79-1.1-.16-1.85.6-1.1-2.21-1.33c-1.61,2.08-2.28,4.63-2.02,7.64l.49.31.03.35-.42.5.03.35.62,1.81-1.11,1.96,1,2.13.13,1.5c-3.23,2.22-5.34,3.38-6.35,3.46l-.38-.32-.03-.35.62-2.27-.56-1.12c-.48-5.63.52-9.8,3.01-12.5l-1.37-1.05-.1-1.16,3.69-7.31c.65-1.46,2.88-2.66,6.69-3.61,1.47-.13,2.17-.57,2.1-1.35l-.03-.35-.99-.61-18.29,1.57-8.77,1.1-.79-1.1-.12-1.39c-.09-1,3.56-2.44,10.94-4.32l.43-.39.81-.07c3.09-.27,7.98-1.19,14.69-2.78l13.69-.83c.71-1.69,1.63-2.78,2.75-3.27l.93-.08,11.31-1.32ZM205.58,147.49l2.2-.19c1.62-.14,2.71.27,3.26,1.24l-.3,1.89,1.34,4.78c-.92,1.09-2.19,1.7-3.81,1.84l-1.3,1.16-.87-.62-.35-4.05c.93-1.01,1.65-2.47,2.19-4.39-2.03-.14-3.07-.4-3.1-.78l.74-.88ZM207.88,163.39l3.94-.34-.19,1.88,2.74,1.98.16,1.85c.06.69-1.32,1.32-4.15,1.87l-.55.4-.35.03c-1.25-.13-1.99-1.42-2.2-3.89l.87-.77-1.03-1.08-.1-1.16.87-.77ZM207.11,154.47l.61.3.69-.06-.09-1.04-.35.03-.87.77ZM209.95,176.62l1.27-.11c.1,1.16.49,2.02,1.16,2.58l-1.18,1.15,2.74,1.98.04.46-.75.76-1.74.15-1.98-1.35-.29-3.36.74-2.28ZM209.12,141.24l.88.74-.75.76-.99-.61.86-.89ZM219.1,186.68l.13,1.5-.75.76-1.83-.89-.84,1.12c.05.54.53.77,1.46.69l.38.32.03.35-3.28,2.5-.35.03-1.48-.92c.9-3.11,1.77-4.7,2.62-4.77l3.91-.69ZM215.25,197.51l1.83.89-.86.89-.81.07-.88-.74-.03-.35.75-.76ZM221.2,200.26l2.66-.23.04.46-4.73,3.32-2.11-.17-.75.76-.99-.61c-.07-.77.94-1.25,3.03-1.43l2.85-2.11ZM218.13,180.81l1.1.6-.55.4-1.39.12-.75-.63.32-.38,1.27-.11ZM218.7,198.26l1,.73-.87.77-.69.06-.06-.69.62-.87ZM221.46,214.11l1.36.93-.59,1.22c1.38.66,2.11,1.45,2.19,2.38l-.25,1.19.99.61.07.81-1.88,3.89,2.85,1.97.06.69-.42.5.03.35,1.36.93-.71,1.23.03.35,1.29,1.41c.93-.08,1.35-.62,1.26-1.62l.58-.05-.61-.3-.35-4.05.29-3.41-1.23-2.11.88-1.94-1.23-2.11-.1-1.16c-.69.06-2.25-.82-4.66-2.63l-.35.03-.86.89ZM219.38,134.41l.49.31.46-.04.98-.78-.07-.81-.58.05-1.29,1.28ZM241.89,170.96l.03.35,2.01,1.69-.33,1.54.49.31.35-.03-.13,2.58.07.81.78.98.03.35-1.42,2.45,1.33.58,1.39-.12.87-.77-.74-1.8.42-1.9-1.19-2.93.32-.38-.03-.35-.39-.43-.03-.35.16-2.23c-.53-3.45-1.14-5.15-1.84-5.09-.38.03-.67,1.19-.87,3.46l-1.29,1.28ZM242.55,148.86c.04.46-.48.74-1.56.83l-.32.38.16,1.85.88.74.46-.04c.85-.07,1.33-1.24,1.45-3.51l-.49-.31-.58.05ZM242.25,158.91l.1,1.16.46-.04.62-.87-.03-.35-1.16.1ZM242.9,161.07l-.42.5.03.35,1.25.94.98-.78c-.03-.38-.65-.72-1.84-1.01ZM244.74,187.85l1.74-.15,1.92-2.03-2.27-2.02c-.85.07-1.31,1.47-1.39,4.2ZM247.53,190.53l-1.76,3.88.45,1.13,1.74-.15.8-1.58-.22-2.55-1-.73ZM247.36,198.01l-.83,1.24.99.61,1.3-1.16-1.46-.69ZM248,212.18l.06.69,1.11.72.93-.08.62-.87-.06-.69-1.3-.24-1.36.47ZM247.72,202.17l.06.69.87.62.55-.4-.16-1.85-.58.05-.74.88ZM253.58,184.88c.57,1.2,1.05,1.78,1.43,1.74l.97-.9-.13-1.5-1.1-.6-1.17,1.27ZM263.33,276.52l.88.74.93-.08,1.17-1.27-1.37-1.05-1.61,1.65ZM254.62,154.93l.87.62.98-.78-1.11-.72-.74.88ZM264.3,138.71l.45,1.13-3.68,3.35-1.74.15-1.34-.7-.86.89,1.02.96-1.14,1.61c.07.77,1.1,1.07,3.11.9l.06.69-1.14,1.61c1.39-.12,2.25,1.79,2.59,5.72l-.43.39-.81.07-.87-.62-.16-1.85-.46.04c-.62.05-1.1,1.69-1.44,4.91l-.69.06.04.46,2.32,3.88c.62-.05.98-1.21,1.1-3.48l.93-.08,1.37,1.05-.3,1.89.9,5.05.07.81-.33,1.54,1.09,1.77-.14,3.74-.46.04c-.54.05-1.05-.92-1.53-2.9l-1.33-.58c-.62.05-.98.82-1.08,2.31l1.87,1.36c-.08,2.73-.4,4.35-.98,4.87l.48,1.48-.41,3.42c.85-.07,1.38,1.13,1.59,3.59l.46-.04-.3,1.89.29,3.36.87.62c-.05-.54.75-1.73,2.37-3.59l-1.93-6.13.86-.89-1.27-3.97-.03-.35,1.29-1.28,1.37,1.05-.71,1.23.03.35.9.97.39,4.51.59,1.47-.34,1.43.04.46c.9.55,1.8,2.33,2.68,5.37l1.27-.11,1.35-.58.16,1.85.81-.07c.46-.04.8-1.16.99-3.35l.46-.04,1.36.93,1.18-1.15c-1.83-1.4-2.79-2.56-2.87-3.49l-.23-2.66c-.03-.38.67-.79,2.11-1.23l.38.32-.19,1.88.03.35.99.61.81-.07-.51-1.82c4.78-1.34,7.14-2.4,7.07-3.17l-.06-.69-.91-1.09c-2.25.97-4.05,2.14-5.41,3.5l-.46.04-.88-.74c.26-.57,2.98-2.39,8.16-5.48,2.47-2,3.65-3.62,3.55-4.85-4.82-2.77-8.1-5.6-9.83-8.48-1.53-.57-2.36-1.62-2.49-3.17-3.51-2.81-5.33-4.98-5.46-6.53-1.52-.49-3.45-3.08-5.8-7.78l-.61-.3-.03-.35.86-.89,1.66.32.54-.51-.06-.69c-1.33-.97-2.03-1.92-2.11-2.85,2.81-1.72,4.15-3.31,4.02-4.78l-.49-.31-3.36.29-1.18,1.15ZM258.31,168.03l1.33.58,1.04-.09.06-3.39-.38-.32-1.04.09c-.62.05-.96,1.09-1.01,3.12ZM263.05,195.96l.03.35,1.37,1.05,1.17-1.27-.03-.35-.99-.61-.81.07-.75.76ZM261.1,143.53l.46-.04.87.62.03.35-.74.88-.93.08-.88-.74,1.18-1.15ZM259.74,133.15l.03.35,2.36,1.66.43-.39-.13-1.5-1.36-.93-.46.04-.87.77ZM269.33,228.3l.06.69,1.37,1.05.31-.49-.54-2.17-.46.04-.74.88ZM270.65,234.14l.09,1.04.88.74.43-.39-.07-.81-.87-.62-.46.04ZM271.46,238.15l1.45.57.32-.38-.03-.35-.99-.61-.75.76ZM272.2,246.72l1.45.57.63-.75-.04-.46-.75-.63-1.29,1.28ZM272.03,240.67l.07.81.97-.9-1.04.09ZM273.73,255.1l-.43.39.04.46,1.1.6.63-.75-1.34-.7ZM273.72,260.34l.49.31.58-.05c.85-.07,1.23-.61,1.14-1.61l-.67-.99-.35.03c-.91.31-1.31,1.09-1.2,2.32ZM273.55,252.9l.61.3.69-.06-.09-1.04-.35.03-.87.77ZM272.18,146.31c.13,1.47,1.14,4.22,3.04,8.25l-.22,1.53.03.35,1.26,1.06.93-.08,1.61-1.65c-.13-1.47-1.1-2.35-2.91-2.66l.3-1.89-.04-.46-1.03-2.48,1.17-1.27-.03-.35-.99-.61-3.13.27ZM352.56,313.27l.03.35,2.85,1.97.87-.77.35-.03.06.69-.83,1.24.99.61,2.54-1.62-3.4-4.26-1.85.16-1.61,1.65ZM359.21,318.64l.07.81c2.33-.04,3.57.82,3.72,2.6l.03.35-1.26,1.62c2.44,1.27,4.13,1.86,5.05,1.78l.35-.03.87-.77-.62-1.81c1.28-.5,2.11-1.19,2.5-2.08l-.1-1.16-1.78-1.71.19-1.88-1.94-.88c-4.79,1.27-7.15,2.32-7.07,3.17ZM372,329.09l.39.43.46-.04c.54-.05,1.21-.88,2-2.5l-.03-.35-2.82,2.46Z"/><path class="cls-1" d="M406.44,69.44l1.6,1.03,3.33-.64.51,1.82,1.16-.1,1.29-1.28,4.51-.39c.69-.06,1.09.41,1.17,1.42l-2.31,11.04c-.46.04-.66.91-.59,2.62l.35,4.05,2.69.12c.27-1.34.81-2.36,1.6-3.05l2.2-.19c1.16-.1,2.68.39,4.56,1.47l1.09-.91,1.54.33,4.01-.81.39.43.12,1.39c-.42.5-.73,2.78-.93,6.84l-.85,2.29.38.32.04.46c-.78,5.35-1.03,9.73-.74,13.12l.06.69-.71,1.23.9.97.03.35-.55,7.16.54,2.17.13,5.59.07.81.35-.03-.19,1.88.61,7.06-.63.75-.45-1.13c-.93-10.8-1.4-20.33-1.41-28.57-.46.04-.76-.67-.88-2.14-1,.09-1.53-.14-1.57-.68l1.04-1.49-.36-4.17.16-2.23-.51-1.82.91-1.59-.47-1.36.54-1.91-.39-.43-.69.06c-2.8,2.73-4,6.33-3.62,10.81-.46.04-.89,3.69-1.27,10.96-1,.09-1.35,1.98-1.03,5.69l1.32,1.75.03.35-1.88,3.89.75.63.16,1.85-.91,1.59.26,3.01c.11,1.24-.11,1.88-.65,1.92l1,2.13c.09,1.08-.7,2.28-2.37,3.59.23,2.7-.15,4.09-1.16,4.18l-.35.03-.38-.32-.26-3.01-.6-2.86,1.11-8.73-1.63-1.38-.09-1.04,1.35-1.98-.29-3.36-.54-2.17c.25-1.58.53-2.38.84-2.4l-2.1-2.73-.03-.35.8-4.27-.54-2.17.66-8.57-.39-.43-.03-.35.16-2.23-.13-1.5-.69.06c-.75.3-1.07,1.07-.97,2.3l.59,1.47c-.88,1.55-1.28,2.72-1.22,3.49l.22,2.55-1.03,1.6.91,1.09c-.78.85-1.17,2.24-1.16,4.18l.67,3.67-1.45.82.48,1.48-.16,2.23.88.74.03.35c-.96.63-1.31,2.41-1.06,5.34l-1.69,2.01,2.04,2.04.26,3.01c-1.37,1.28-2.21,3.22-2.53,5.82,1.8.16,2.72.43,2.75.81l.07.81-.72,1.11,1.35,2.1-.74.88.9.97.07.81c.04.46-.44.74-1.45.82l-.32.38.1,1.16.51,1.82-2.04,2.04,1.1.6,1.1-.79.35-.03.87.62.04.46-1.07,1.14-1.22-.59-1.26,1.62.03.35.75.63,1.1-.79,1.04-.09,1.38,2.45c-1.21.42-1.79.85-1.75,1.32l.06.69.79,1.1.16,1.85-.63.75-.81.07c-.06-.69-.32-1.02-.78-.98l-.69.06.09,1.04,3.18,3.11-.09,3.04.44,1.01-.44,3.07,1.1.6.46-.04c.09-1.72.36-2.6.82-2.64l1.25.94-.71,1.23.19,2.2.85,4.47-.43.39-.35.03-1.07-.26-1.76,1.2.74,4.48,1.15,13.31.75.63.75-.76-.1-1.16c-.27-3.16-.06-4.78.63-4.84.46-.04.9.55,1.32,1.75l.16,5.93.09,1.04c.29,1.53.7,2.27,1.24,2.23l-.32,4.46,1.52,5.47-.35,4.11,1.01,3.64-.06,3.39.1,1.16,1.35,2.1-.75.76.1,1.16.03,4.43,1.88.19c.12-1.33.53-2.45,1.23-3.37l-1.29-1.41-.1-1.16.43-.39-.03-.35-1.26-1.06c-.04-.46.33-.73,1.1-.79l.32-.38-.16-1.85c-.2-2.32-.84-3.89-1.92-4.73.58-2.3,1.2-3.72,1.85-4.24l-.03-.35c-.8-.24-1.64-1.41-2.52-3.52l.99-6.15-1.62-1.26c.69-.99,1-1.91.93-2.76l-.97-5.86.33-1.54-.71-2.85-.07-.81,2.44-2.78-1.6-1.03.35-4.11-1.61-2.43-.62-1.81.52-3.43-.58-2.63.07-3.27-.9-6.34.32-.38-.03-.35-.38-.32.22-1.53-.8-5.18c.97-.47,1.65-1.15,2.04-2.04l-.03-.35c-.05-.54-.57-.77-1.57-.68l-.38-.32-.35-4.05,2.07-1.69c.54-.05.98.54,1.32,1.75l-.52,3.43.13,1.5,3.63-1.13.39.43.03.35-.95,1.13-.38-.32-.46.04-1.94,3.2.22,2.55c.22,2.55.02,4.31-.59,5.3l1.14,1.07.25,2.89,1.07,2.94.03.35-1.03,1.6.82,1.45-.42,3.3.04.46,1.28,1.29c.05.54-.31.84-1.09.91l-.32.38.03.35c.05.54.57.77,1.57.68l.38.32.09,1.04-.19,1.88.45,1.13.48,9.64.03.35c.07.85.5,1.71,1.27,2.57l.32,3.7.81-.07,1.29-1.28c.62-.05,1.12,1.27,1.51,3.95l-.06,3.39,1.14,1.07.16,1.85-.6,1.1.16,1.85,1.29,1.41-.23,2.7.97,5.86.45,5.21.78.98.13,1.5.83,5.53-.09,3.04.38.32.35-.03-.03,3.73.35,4.05,1.95,1c1.97-.64,2.88-1.72,2.75-3.27l.25-1.19-.54-2.17-.16-1.85c-1.23.11-1.87-.07-1.91-.54-.05-.54.43-.85,1.44-.94l.32-.38-.19-2.2-.91-1.09-.25-2.89-1.01-3.64.25-1.19-1.14-5.15-.22-2.55-.87-.62.07-8.64-.7-4.02-.64-7.41.16-2.23c-.66-1.34-1.14-3.79-1.45-7.34l.23-2.7-.55-1,.45-4.24-.51-1.82-.25-2.89.22-1.53-.48-1.48-.03-.35.22-1.53-1-2.13.36-1.2-.74-3.2-.2-2.32.75-.76.69-.06.32,3.7.48,1.48-.32.38.03.35,1.42,2.91-.72,1.11.45,5.21.1,5.24.8,5.18-.32.38.51,1.82.54,6.25.62,1.81-.26,2.36.54,6.25.65,2.16-.3,1.89.03.35.91,1.09.77,8.91c4,22.05,6.92,32.99,8.77,32.83l.38.32.03.35c-3.96,6.33-10,9.84-18.1,10.54l-7.97,2.2-2.32.2-2.23-.16-1.82.51-.35.03-1.23-.71-2.2.19-.97.9-2.32.2c-2-.68-3.07-1.83-3.21-3.46-1.32-.9-2.11-2.81-2.36-5.74l-.13-1.5c-.59-.57-1.09-1.77-1.48-3.6l.32-.38-.04-.46-.54-2.17c.96-.55,1.4-1.32,1.32-2.33l-.54-2.17.16-2.23-.35.03c-1.47.13-2.36-1.66-2.68-5.37l-1.32-1.75-.13-1.5.62-.87-.88-2.14-.41-4.75c-2.14-1.45-3.27-2.75-3.37-3.91l-.85-1.79-.83-9.61-.7-4.02.19-1.88-.64-3.33.06-3.39-.44-1.01.16-2.23-.36-4.17.6-1.1-.45-5.21-.51-1.82.16-2.23-.39-4.51.02-5.13-.5-.42.14-3.74-1.37-15.86.57-1.56-.88-2.14-.55-6.37c.61-.99.88-1.98.79-2.98l-.74-4.48c-.08-.93.57-1.95,1.95-3.08l.87.62c2.65-.85,3.96-1.47,3.92-1.85l.88-1.94-1.13-.95-1.13.45-1.17-1.42c-1.79,2.64-3.19,4.01-4.2,4.09l-.38-.32-.03-.35.32-.38-.04-.46-.54-2.17-.03-.35,1.69-2.01-1.92-4.73.32-.38-1.65-11.05,1.13-4.53-1-2.13-.04-.46.97-2.3-.54-2.17c.75-6.67,1.66-10.48,2.75-11.43l2.2-.19,3.46.87c3.65-.93,5.42-2.1,5.3-3.49l1.4-9.45.51-2.26.58-2.73.32-.38.35-.03ZM394.15,151.55l-.56,2.96,1.26,1.06.09,1.04-.31.49.03.35.38.32.35-.03,1.79-.85,2.32,1.2.75-.76-.1-1.16-1.28-1.29-.04-.46.75-.76,1.88.19.32-.38-.03-.35-1.66-1.72-2.2.19-3.73-.03ZM393.61,149.27l1.98,1.35.69-.06c2.21-.5,3.23-1.72,3.07-3.65-.56-1.04-1.36-1.83-2.42-2.36-1.2,2.36-2.21,3.69-3.04,3.99l-.32.38.03.35ZM397.55,135.52c-.75,2.09-2.15,4.35-4.2,6.78l.38.32.69-.06,1.41-1.29.35-.03,2.38.61c.49,1.2,1.28,1.76,2.36,1.66l.06.69-.71,1.23.49.31,1.04-.09.74-.88-.06-.69c-.68-.64-1.17-1.84-1.48-3.6.97-.47,1.44-.9,1.41-1.29-2.58-1.1-3.89-1.84-3.92-2.23-.09-1-.4-1.48-.94-1.44ZM396.69,176.99l.1,1.16c1.56,1.89,3,2.77,4.31,2.66l.71-1.23-.03-.35-.88-.74-.31.49-.35.03c-1.26-.2-1.91-.54-1.95-1s.56-.75,1.79-.85l.31-.49-.06-.69-.75-.63-.46.04c-1.23.11-2.04.64-2.43,1.61ZM392.28,117.66l.04.46,1.59.91.07.81-.26,1.07.38.32.35-.03,1.13-.45.38.32.07.81c.13,1.54-.37,2.95-1.5,4.21l1.26,1.06c-.09-1,.84-1.59,2.76-1.75l.43-.39-.32-3.7c-1.17-2.7-2.06-4.02-2.67-3.97l-3.7.32ZM396.66,168.48l.25,2.89.88.74.69-.06,1.69-2.01-.03-.35-.79-1.1-.03-.35.59-1.22-.16-1.85c1.78-.15,2.63-.58,2.57-1.27l-.88-.74c-1.47.13-2.15.81-2.04,2.04-2,.17-2.92,1.26-2.75,3.27ZM398.87,184.73l.06.69.75.63.35-.03,1.07-1.14-.38-.32-1.85.16ZM397.08,159.81l.76.75.46-.04.62-.87-1.22-.59-.63.75ZM394.54,112.68c.1,1.16-.21,2.04-.94,2.65l.03.35.88.74,1.39-.12,2.75-3.27-.75-.63-3.36.29ZM408.63,112.52c-1.95,2.66-2.77,5.72-2.47,9.19l-1.03,1.6.1,1.16.75.63-.28,4.92.47,1.36-.31,4.57.09,1.04,1.17,1.42c-.1,2.5-.34,3.76-.72,3.79l1.04,3.99c.05,1.47-.2,2.62-.75,3.45l.79,1.1c.19,2.16-.06,3.78-.75,4.85l.04.46.9.97-.12,2.69.63,3.21.2,2.32,1.16,1.3-1.29,1.28.45,1.13.41,8.83.13,1.5.79,1.1.03,4.43.76.75.03.35-.6,1.1.16,1.85,1.46,4.77-.13,2.58.2,2.32,1.29,5.49-.24,2.59.94,1.44-.59,2.62c.44,1.44.88,2.14,1.35,2.1l.32-.38.26-1.07.46-.04-1.01-2.25-.03-.35c.93-1.01,1.29-2.64,1.1-4.88l-1.32-1.75.42-.5-.62-1.81.59-2.62-.64-3.33.13-2.58-.48-1.48.25-1.19-.87-.62-.77-8.91.68-1.57-.44-1.01.16-2.23-1.01-2.25-.12-1.39.14-3.74-.88-.74-.1-5.24-.03-.35c-.04-.46.33-.73,1.1-.79l1.94.88.32-.38-.06-.69c-.04-.46-.92-.77-2.65-.94-.09-1-.51-1.47-1.29-1.41l.62-2.27-.55-1,.45-4.24-.93-1.32-.06-6.06-1.03-2.48c.08-1.79.36-3.06.84-3.8l-.1-1.16-.9-.97.55-7.16-.38-.32-.03-.35.5-2.38-.25-2.89c.69-.99,1-1.91.93-2.76l-.41-4.75-.88-.74ZM407.37,105.98l-.6,1.1.04.46.75.63,1.06-1.26-1.25-.94ZM414.2,72.86c-2.63,3.8-3.86,6.67-3.69,8.6.11,1.31-.94,2.14-3.17,2.49l-.59,1.22.03.35c.04.46.79.63,2.26.51l.04,4.54.57,2.52c.03,3.03-.21,4.8-.71,5.31l.03.35.87.62c.93-.08,1.71-2.25,2.36-6.5l.32-.38-.03-.35-.39-.43-.03-.35c-.1-1.16.84-3.34,2.82-6.54l1.03-5.69-.64-3.33.32-.38-.03-.35c-.44-1.52-.89-2.26-1.36-2.22ZM421.34,254.75l.38.32.35-.03,1.07-1.14-.49-.31-.35.03-.95,1.13ZM419.98,217.2l.51,1.82-.75.76.07.81.87.62,1.69-2.01-.38-4.4-.88-.74c-.46.04-.84,1.08-1.13,3.13ZM419.34,209.79c.4.98.79,1.45,1.17,1.42.77-.07,1.05-1.33.84-3.8-.36-1.45-.81-2.15-1.35-2.1s-.76,1.54-.66,4.49ZM420.87,227.62c.46,1.67.99,2.48,1.61,2.43.46-1.05.61-2.42.46-4.12l-1.16.1c-.62.05-.92.59-.91,1.59ZM421.19,231.32l.03.35c.33,2.93.8,4.36,1.42,4.31l.81-.07c-.1-1.16.06-2.02.48-2.61l-2.39-2.01-.35.03ZM423.77,261.31l1.13.95,1.5-.13c5.86-1.44,8.74-2.77,8.63-4.01l-.04-.46-4.05.35c-.56.75-2.97,1.58-7.25,2.49l.07.81ZM416.95,177.93l.75.63.75-.76-.88-.74-.62.87ZM419.08,202.7l.03.35.76.75,1.06-1.26-.87-.62-.35.03-.63.75ZM420.96,224.58l.38.32,1.5-.13-.09-1.04-1.16.1-.63.75ZM408.53,76.03l1.22.59.35-.03-.13-1.5-.81.07-.62.87ZM419.6,182.95l.35-.03,1.25.94.03.35-1.38,1.63-.75-.63-.13-1.5.63-.75ZM420.29,186.97l.35-.03.87.62c-.14,3.74-.48,5.64-1.03,5.69l-.75-.63-.23-2.66c-.16-1.85.1-2.85.79-2.98ZM418.44,165.44l.38.32.88.74c.02,2.95-.24,4.45-.78,4.5l-.75-.63.19-1.88-.54-2.17.62-.87ZM418.84,160.62l.38.32.35-.03-.41,3.42-1.16.1c-.06-2.48.22-3.75.84-3.8ZM418.88,144.87l1.23.71-1,6.03c.43,4.94.29,7.44-.4,7.5l-.46.04-.39-4.51.72-1.11-.48-1.48.75-3.45-.64-3.33.32-.38.35-.03ZM430.4,239.39l.39.43.46-.04.62-.87-.38-.32-.35.03-.75.76ZM424,143.38c1.2.36,1.86.77,1.97,1.23l.07.81-1.85.16-1.14-1.07-.03-.35c-.04-.46.29-.72.98-.78ZM431.49,204.66l-.19,1.88.32,3.7.8,5.18-.32.38.03.35,1.87,12.2,1.1.6,1.16-.1-.16-1.85-1.51-3.95.52-3.43-.68-2.51.33-1.54c-.86-1.01-1.57-4.68-2.11-11.01l-1.16.1ZM428.48,160.14l.69-.06.13,1.5-.63.75-.87-.62-.07-.81.75-.76ZM429.11,163.47l.35-.03.12,1.39-.22,1.53.48,1.48.1,1.16-.63.75-.87-.62-.39-4.51,1.07-1.14ZM430.13,179.36l.76.75,2.49,15.41-.09,3.04.06.69-1.16.1-.48-1.48.1-2.92-.89-2.26.16-2.23-.06-.69-.91-1.09-.29-3.36.72-1.11-.19-2.2-.91-1.09-.06-.69.74-.88ZM428.09,147.46l.87.62.04.46-.75.76-.69.06-.1-1.16.63-.75ZM427.74,139.33l.81-.07.12,1.39-.74.88-.76-.75-.06-.69.63-.75ZM434.99,140.92l.03.35-.16,2.23.67,3.67.1,1.16-1.04.09-.13-1.5-.94-5.52.43-.39,1.04-.09ZM435.66,152.76l.38.32.77,8.91-.69.06-.87-.62.04-4.9-.71-2.85,1.09-.91ZM434.71,149.93l1.04-.09.06.69-.63.75-.38-.32-.09-1.04Z"/><path class="cls-1" d="M511.04,50.41l.35-.03c.39-.03,1.04,1.66,1.95,5.08l.38.32.13,1.5c1.25,6.42,2.45,10.4,3.59,11.94,3.5,5.45,5.58,9.28,6.24,11.47,1.83,2.33,3.45,5.3,4.85,8.91.56.18,1.31,1.72,2.26,4.59.54-.05,1.02,1.04,1.45,3.26,1.63,2.66,2.71,5.29,3.24,7.88,1.05,1.39,2.58,4.64,4.57,9.75l6.57,15.41-.31.49-.35.03c-1.33-1.05-2.87-4.42-4.6-10.1-.38.03-1-1.27-1.85-3.92l-5.04-11.11c-.69.06-1.33-1.52-1.92-4.73l-2.79-1.28,1.1-.79c-.13-1.47-1.54-4.84-4.25-10.13-1.14-1.53-1.77-2.96-1.88-4.27l-.38-.32-2.11-2.85-.35.03c-.77.07-1.04,1.45-.81,4.15l.88.74.06.69-3.01.26-3.57,1.82c.36,4.17,1.74,7.04,4.12,8.62l-1.1.79c.25,2.93,1.44,4.93,3.55,5.99,1.43-.59,2.12-1.12,2.08-1.58l-.04-.46-1.97-1.23.12-2.69-.06-.69c-.97-1.39-2-2.04-3.08-1.95l-.1-1.16c1.31-.11,2.24-.7,2.76-1.75l.43-.39.35-.03-.03-.35-.88-.74-.35.03-.97.9-.46.04-2.01-1.69-.03-.35c.22-1.03,1.3-1.63,3.23-1.79l1.85-.16.87.62-.62,2.27c.92.78,2.18,3.66,3.78,8.65l1.76,2.88.06.69-.71,1.23c1.39-.12,2.23,1.05,2.52,3.52.39-.03,1.03,1.51,1.91,4.62l2.14,3.2-.51,2.26c1.16-.1,2.96,3.63,5.4,11.2.77,2.66,1.78,3.93,3.01,3.82l4.3-1.54c.61.73,1.41,2.79,2.4,6.21.77-.07,1.27,1.25,1.51,3.95l.48,1.48c1-.09,2.82,3.84,5.45,11.78.71.17,2.51,3.4,5.38,9.68.69-.06,1.6,1.84,2.71,5.71l.75.63.1,1.16-.91,1.59.78.98.32-.38.81-.07.03.35-.71,1.23.16,1.85,1.63,1.38.35-.03-.39-4.51,1.03-1.6-.9-.97-.19-2.2,2.88-1.76-.03-.35-1.29-1.41.27-2.24-.81.07-1.42,1.17-.75-.63-.26-3.01c.69-.99,1-1.87.94-2.65-1.12-1.22-1.73-2.53-1.85-3.92l.22-1.53-.64-3.33-.48-5.56-.91-1.09-.7-8.1.68-1.57-2.1-2.73-.04-.46.6-1.1-.48-5.56-.79-1.1-.22-2.55.59-1.22-.35-4.05-.79-1.1-.16-1.85,1.32-2.33-.06-.69c-1,.09-1.53-.14-1.57-.68l-.12-1.39-.83-5.53c2.68-.54,3.99-1.04,3.95-1.51l-1.03-2.48.74-.88-.16-1.85-1.5.13c.03,3.03-.34,4.58-1.12,4.64l-1.14-1.07c-.15-1.7.09-3.08.69-4.14l-.26-3.01-.78-.98-.04-.46.6-1.1-.1-1.16-1.38-20.06.37-1.08-.59-1.47.75-.76-.07-.81c-.24-3.71-.17-5.58.22-5.62l-.44-1.01c.14-3.74.49-5.64,1.03-5.69l.69-.06.38.32.43-.39,1.04-.09c1.47-.13,2.74.23,3.82,1.07l.35-.03c1.39-.12,2.24-.66,2.54-1.62,2.7-.23,4.13.62,4.3,2.55.47,1.83,1.06,2.79,1.76,2.88l.69-.06,1.19-3.83-.1-1.16-.51-1.82.32-.38,3.36-.29,2.42,2.36,1.85-.16c1.08-.09,2.37-.94,3.86-2.55l1.85-.16,1.26,1.06.29,3.36,1.62,1.26.35-.03,1.73-1.55.35-.03,1.62,1.26.16,1.85c-.69.99-.95,2.53-.77,4.61l.48,5.56-.6,1.1.13,1.5v9.33s.48.31.48.31l.04.46-.37,1.08-1.04.09c-.06-.69-.63-1.5-1.72-2.42l-.58-2.63.32-4.46-.38-.32-.03-.35.22-1.53-.76-.75-1.16.1c-.54.05-.74,1.81-.59,5.3l.7,4.02.04,4.54.38.32.03.35-.9,3.11,1,2.13-.55,3.08,1.25.94.07.81-1.39,1.52c.5,3.07,1.03,4.77,1.61,5.11l-.55,3.08.41,4.75c.05.54.57.77,1.57.68l.38.32.03.35-1.66,2.36,1.32,1.75c0,2.8-.37,4.23-1.15,4.3l.51,1.82-.23,1.42c.6,1.5,1.16,2.23,1.7,2.19l.06.69-.35.03.83,5.53.03.35.04,4.54.67,3.67-.07,3.27.83,5.53.87,10.07.78.98.42,4.86-.59,1.22.06.69,1.17,1.42.09,1.04-.59,1.22c1.1.99,1.85,3.92,2.27,8.78l-.22,1.53.57,2.52-.25,1.19.88,2.14.32-.38.81-.07.75.63-.13,2.58-1.22-.59-.59,1.22.09,1.04.67,3.67-.62.87.75.63.35-.03,1.06-1.26-.47-1.36.31-.49.35-.03.76.75.32,3.7-.69.06-1.23-.71c-.46.04-.62.95-.47,2.72-.61.99-1.57,1.57-2.88,1.76-1.43-2.13-2.27-4.7-2.53-7.71l.46-.04-1.06-2.82.32-.38.46-.04c.46-.04.72.29.78.98l.38.32.35-.03.43-.39-.16-1.85-.9-.97-.16-1.85-2.96-.56.23,2.66-2.44,2.78.67,3.67-.32,4.46,2.3.97c.13,1.47-.38,2.75-1.53,3.86l.03.35,3.96,2.69c-1.31,1.9-1.94,3.2-1.88,3.89.77-.07,1.22.63,1.35,2.1l1.39-.12c-.07-.77.4-1.2,1.41-1.29l.75-.76-.03-.35-1.63-1.38c-.15-1.7.32-3.49,1.4-5.37-.03-1.24.27-1.89.88-1.94.62-.05,1.2.79,1.73,2.53l-.16,2.23.09,1.04.76.75.74-.88-.87-.62-.03-.35.71-1.23-.19-2.2-.91-1.09-.06-.69,1.06-1.26.69-.06.13,1.5,2.43,18.8.39,4.51.78.98.26,3.01-.59,1.22.03.35.78.98.1,1.16.89,6.22c-.32.8-1.87,1.33-4.65,1.57l-6.4,4.28-.69.06-4.24-1.85-.81.07-1.42,1.17-2.23-.16c-.9,1.24-2.56,2.28-4.98,3.11l-1.69,2.01c-2.67-2.1-4.09-4.12-4.25-6.05-1.55-.88-3.3-4.07-5.26-9.58l-2.55.22c-1.8,1.63-3.59,2.52-5.37,2.68l-2.69-.12-5.68,3.05-1.16.1c-3.47-2.34-8.85-10.2-16.14-23.57-.06-.69-1.65-3.32-4.76-7.87l-1.82-3.57c.34-1.51.78-2.28,1.32-2.33l1.04-.09.38.32.46-.04-.23,2.7c.08.93,1.09,2.2,3.01,3.82l.06.69-.71,1.23.03.35.91,1.09.32-.38,1.5-.13,1.13.95.13,1.5-.22,1.53c.71,1.88,1.91,2.75,3.61,2.61l.51,1.82-.5,2.38,1.62,1.26.35-.03,1.69-2.01-5.4-9.91c-.5-.42-.84-1.64-1.01-3.64-.85.07-2.09-2.58-3.72-7.96-1.87-.93-3.62-4.12-5.26-9.58-.38.03-1.08-.76-2.07-2.39-.46.04-.95-1.16-1.48-3.6l-.39-.43-.19-2.2c-1,.09-1.55-.37-1.63-1.38l.27-2.24-.49-.31-.69.06-.32.38-.35.03-.49-.31-.06-.69.71-1.23-.03-.35c-.93.08-1.92-1.08-2.98-3.48l-.38-.32.12-2.69c-1.47.13-2.32-1.16-2.55-3.86l-1.17-1.42-.03-.35,1.29-1.28,1.2.36.31-.49-.09-1.04-4.37.73c-1.04-.38-1.6-.95-1.66-1.72l.09-3.04c-.71-.17-1.86-2.17-3.43-6l.25-1.19c-.54.05-1.36-.85-2.45-2.7-.1-1.16.15-2.31.75-3.45l-.75-.63-2.14.88c-.49-.27-1.17-2.31-2.04-6.12l-1.66-1.72-.04-.46c-.11-1.23.5-2.76,1.82-4.59l-.03-.35-2.43-2.47-.62.87-1.16.1-.07-.81,1.63-2.71-.06-.69c-.05-.54-.92-.74-2.62-.59l-.87-.62c-1,.09-1.5,1.49-1.5,4.21l1.63,1.38.22,2.55,1.58,4.76-.27,2.24.06.69.88.74-.26,1.07c.59,3.21,1.08,4.81,1.46,4.77l-.19,1.88.13,1.5.78.98.42,4.86c1.86.77,2.85,1.93,2.98,3.48l-.81.07-1.1-.6-.75.76c2.8,11.73,4.75,21.28,5.85,28.65l.87.62.35,4.05c.29,3.4.82,5.49,1.59,6.28l4.08,25.77.87.62.32,3.7.48,1.48-.32.38.57,2.52.8,9.26c.16,1.85-.14,2.89-.9,3.11l-1.5.13c-1.85.16-5.21,1.3-10.08,3.43l-1.66-1.72-3.39,4.02c-2.7.23-4.01.85-3.92,1.85-.13,2.97-1.51,5.96-4.12,8.98l-.32.38-4.86.42c-3.27,1.76-5.68,2.7-7.22,2.84-.8-1.17-1.91-4.19-3.34-9.04l-.38-.32-.54-6.25-1.26-1.06-1.5.13-2.49.91c-1.71,0-2.61-.55-2.71-1.63-.24-2.78-1.04-6.28-2.42-10.52l.22-1.53-1.17-5.5-.1-1.16-.9-.97.71-1.23-.91-1.09-.51-5.9c-.18-2.08-.65-3.52-1.42-4.31l-.03-.35c.61-.99.87-2.13.75-3.45l-1.14-1.07-.13-1.5.95-1.13,1.53.22.59-1.22-.99-11.46-.75-.63-.69.06-.75.76.51,5.9-.62.87-.35.03-.88-.74.72-1.11-1.58-8.84-.26-3.01-.25-6.98-.45-1.13.32-.38-.48-1.48v-9.33s-.55-1.12-.55-1.12l-.29-8.84-.45-5.21.91-1.59-.51-1.82-.03-.35.32-.38-.04-.46c2.03.14,3.08.55,3.14,1.25l.03.35c-1.47.13-2.17.58-2.1,1.35l.88,2.14-1.19,3.83,2.01,1.69c.1,1.16-.41,2.45-1.53,3.86l.39,4.51,1.28,1.29.07.81-1.03,1.6,1.22.59.35-.03,1.69-2.01,1.16-.1.06.69-.33,1.54c.68,1.57,1.54,2.51,2.57,2.81.89-.46,1.32-.89,1.29-1.28l-.03-.35c-.04-.46-.41-.66-1.1-.6l-.39-.43-.06-.69.59-1.22-.03-.35c-.36-.59-1.79-1.44-4.3-2.55l-.04-.46,1.41-5.25-.64-3.33.32-.38.35-.03-.58-2.63-.03-.35.91-1.59-.03-.35-2.68-5.37-.06-.69c1.15-1.11,1.69-2.05,1.62-2.82l-3.79-.72-1.42,1.17-.75-.63c-.09-1,.72-1.58,2.42-1.72,1.58-2.39,2.88-3.63,3.88-3.72l.91-1.59-.03-.35c-.07-.77-.49-1.59-1.26-2.46l.19-1.88-.38-.32-.46.04-.98.78.51,1.82.06.69-1.06,1.26.49.31.03.35-3.13,2.95-.35.03-.88-.74-.09-1.04,1.06-1.26,1.07.26.91-2.99-1.23-.71-1.35.58-.26-3.01.51-2.26-.64-3.33.82-2.64-.76-.75-.09-1.04.59-1.22-.35-4.05c-.47-5.48-.38-8.98.26-10.52l-.1-9.32-.44-1.01.74-13.12.31-.49-.16-1.85-.78-.98-.03-.35.59-1.22-.75-.63-.13-1.5.59-1.22-.19-2.2-.79-1.1-.12-1.39.87-3.46,2.52-.57,3.39.06,5.18-.8c1.08-.09,2.62.63,4.62,2.17l.35-.03,1.1-.79.69-.06c.11,1.24.43,1.83.97,1.78l2-2.5,7.41-.64,3.17-2.49.38.32.32-.38,3.36-.29c.62-.05,1.45,2.36,2.49,7.25l1.14,1.07.81-.07.94-1.25-.13-1.5c-1-5.35-1.86-8-2.55-7.94l-.19-2.2.74-.88.69-.06,1.23.71.35-.03,1.75-1.32,3.43.52c-.11-1.23,1.53-2.5,4.92-3.81ZM465.06,201.77l.69-.06.87.62-1.03,1.6-.35.03-.75-.63-.07-.81.63-.75ZM462.95,173.15l.39,4.51,1.29,1.41-.16,2.23.38.32.03.35c-.88,1.55-1.24,3.22-1.09,4.99l.48,1.48.35-.03c1.48-.83,2.12-2.51,1.9-5.06l-.87-.62.68-1.57-.72-2.97.33-1.54-.65-2.16.24-2.59-.46.04c-1.45.36-2.15.77-2.11,1.23ZM467.83,208.18l-.59,1.22.03.35.76.75.74-.88-.06-.69-.88-.74ZM468.25,213.05l-.32.38.03.35.45,1.13-.25,1.19.38.32.35-.03.43-.39-.2-2.32-.87-.62ZM461.48,130.36l.5.42.69-.06.62-.87-.06-.69-.69.06-1.07,1.14ZM470.05,224.44l-.3,1.89.13,1.5,1.16-.1.09-3.04-.38-.32-.69.06ZM462.46,114.65l.06.69.79,1.1.03.35-1.03,1.6,1.6,1.03c-.99,2.88-1.38,5.64-1.15,8.26l1.98,1.35.35-.03,1.38-1.63-.26-3.01.26-1.07-.51-1.82-.35-4.05c-.75-.63-1.19-1.61-1.3-2.92l-1.22-.59-.63.75ZM468.39,175.37l-.6,1.1,1.14,1.07.71-1.23-1.25-.94ZM469.03,190.94l2.36,1.66,1.04-.09.75-.76c-.37-2.45-.86-3.66-1.48-3.6-1.93.17-2.82,1.1-2.67,2.8ZM462.94,112.04l1.25.94.6-1.1-.04-.46-.75-.63-1.06,1.26ZM468.87,180.92l1.63,1.38.35-.03c.69-.06,1.09-1.34,1.19-3.83l-.04-.46-.87-.62-.35.03-1.91,3.55ZM471.62,199.34l1.1.6.75-.76-.88-.74-.35.03-.62.87ZM472.56,202.18l1.6,1.03.32-.38-.03-.35-.45-1.13-.81.07-.63.75ZM472.72,195.87l-.32.38.03.35.88.74.32-.38-.04-.46-.87-.62ZM474.2,207.64l.2,2.32.69-.06-.2-2.32-.69.06ZM474.62,212.5l.1,1.16.69-.06-.04-.46-.75-.63ZM470.02,129.28l.76.75.46-.04.62-.87-.03-.35-.75-.63-1.07,1.14ZM482.61,245.75l1.32,1.75-.19,1.88.38.32.35-.03,1.57-3.4-.1-1.16-.75-.63-1.85.16c-.54.05-.78.42-.72,1.11ZM475.71,160.16l.06.69.69-.06,1.39-1.52-.39-.43-.81.07-.94,1.25ZM476.68,155.18l.1,1.16,1.16-.1.22-1.53-.38-.32-.35.03-.75.76ZM480.14,181.82l.75.63.46-.04.63-.75-.76-.75-.46.04-.62.87ZM480.47,172.11l.06.69.75.63.32-.38-.09-1.04-1.04.09ZM481.55,184.61l.07.81.75.63c-.04-.46.33-.73,1.1-.79l.32-.38-.04-.46-1.25-.94-.95,1.13ZM483.11,198.71l-.32.38.03.35.76.75.32-.38-.04-.46-.75-.63ZM479.6,157.96l.03.35.76.75.35-.03.74-.88-.03-.35-1.85.16ZM475.78,70.24l.73,4.37-.35,4.11.55,2.29.03.35c-.69.99-1,1.88-.94,2.65.05.54.46.78,1.23.71,1.39-.12,2.03-2.66,1.91-7.63l.03-3.73-.23-2.66-1.52-1.39-.81.07-.62.87ZM480.14,108.7l2.05,14.28-.65,1.92,1.63,1.38.1,1.16-.6,1.1.04.46,1.2,1.76-.26,1.07,1.92.65.71-1.23-.26-3.01-2.56-2.69-.26-3.01c.87-1.71,1.26-2.98,1.19-3.83-.14-1.62-.76-2.93-1.85-3.92l-.1-1.16.72-1.11-.07-.81-.9-.97-.26-3.01-1.04.09-.74.88ZM480.59,104.46l-.31.49.12,1.39.69-.06.63-.75-1.14-1.07ZM479.69,81.8l.16,1.85,1.26,1.06c.69-.06,1.12-.99,1.28-2.79l-.38-.32-.03-.35.16-2.23-.16-1.85-.81.07c-.31.03-.65,1.42-1.04,4.17l-.43.39ZM484.61,138.87l.03.35.88.74.35-.03,1.06-1.26-1.22-.59-.35.03-.75.76ZM485.98,141.31l-1.03,1.6.07.81c.72,2.89,1.46,4.31,2.23,4.24,1.54-.13,2.18-1.82,1.9-5.06-.8-1.17-1.86-1.71-3.17-1.59ZM491.72,207.99l.04.46.51,1.82,1.16-.1-.13-1.5-.88-.74-.69.06ZM488.41,151.95l.61,2.98v4.08s.48,1.48.48,1.48l-.35.03.38.32.38,4.4.79,1.1.19,2.2-2.01,2.39.04.46c1.1.99,1.67,1.8,1.72,2.42l-.22,1.53.44,1.01-1.38,1.63.07.81c.04.46.45.66,1.22.59l1.01-.44,1.38,2.45.1,1.16c-.69.99-1,1.88-.94,2.65l.07.81.62,1.81-1.76,1.2.13,1.5c1.7-.15,2.62.63,2.77,2.33l1.76,2.88.03.35-.71,1.23.06.69,1.69,2.07c.75-.3,1.07-1.06.97-2.3l-.64-7.41c-.04-.46-.44-.66-1.22-.59l-.38-.32-.04-.46c.91-1.24,1.3-2.52,1.19-3.83-.25-2.93-.99-4.35-2.23-4.24l-.06-.69,1.31-2.44c-.32-3.7-.86-5.52-1.64-5.46l-1.2-9.93-.16-1.85-1.29-1.41,1.03-1.6c-1.95-1.93-3.02-3.94-3.2-6.02l-.35.03-.32.38-.35.03ZM488.2,149.4l1.1.6.46-.04.95-1.13-1.11-.72-.46.04-.94,1.25ZM488.03,117.7l.38.32.46-.04,1.26-1.62-1.13-.95c-.75.3-1.07,1.07-.97,2.3ZM498.56,204.84l-1.22-.59-.63.75.13,1.5,1.63,1.38.69-.06c-.13-1.54.03-2.34.5-2.38l2.32-.2-.09-1.04-1.26-1.06-.35.03c-.54.05-.78.46-.71,1.23l-.32.38-.69.06ZM497.76,213.07l.07.81.75.63.75-.76-.07-.81-.87-.62-.63.75ZM490.74,123.41c.46,1.67.91,2.49,1.38,2.45l-.25,5.27.8,5.18-.25,1.19,3.33.76.03.35-3.6,1.48c.64,1.11,1.43,5.79,2.37,14.02l-.19,1.88,1.13.95-.12,2.69,1.32,1.75.03.35-1.03,1.6c.38,1.76.88,2.96,1.48,3.6,1.21-.41,1.79-.85,1.75-1.32l-.45-1.13c.69-.06,1-.55.92-1.48l-.39-.43-.03-.35.22-1.53-.44-1.01c.19-2.27.6-3.43,1.22-3.49l.75.63.29,3.36-.59,1.22.03.35.79,1.1.38,4.4.91,1.09.16,1.85-.75.76,1,2.13.29,3.36c.38,4.4.86,7.24,1.43,8.51l-.57,1.45.51,1.82-.31.49-2.66.23.03.35c1.05,1.39,2.35,2.01,3.89,1.88l.38.32.03.35-.31.49.03.35.44,1.01-.22,1.53,1.55,8.5-.14,3.74.97,5.86-.11,4.09,1.42,2.91-1.03,1.6.29,11.52c1.47,1.74,2.91,2.59,4.3,2.55l1.26,1.06,2.55-.22.75-.76-.04-.46-.9-.97-.03-.35c.51-.43.66-1.84.45-4.24.54-.05.93-.93,1.17-2.67l.46-.04-1.26-5.14.16-2.23-.48-1.48.32-.38-3.11-2.3-.04-.46c-.04-.46.56-.75,1.79-.85l.57-1.56-.03-.35c-.42-.43-1.12-2.62-2.08-6.58l-.78-.98.16-2.23c-.05-.54-.57-.77-1.57-.68l-.22-2.55,1-1.95-1.77-6.96.52-3.43-1.22-.59-.98.78-.49-.31-.06-.69c-.05-.54.43-.85,1.44-.94l.32-.38-.22-2.55-.89-2.26.26-1.07c-1.3-6.11-2.3-9.13-3-9.07l-.03-.35.59-1.22-.75-.63-.1-1.16.59-1.22-.03-.35c-.5-.42-.83-1.52-.98-3.3l-1.04-3.99-.46.04.14-3.74-.16-1.85-3.59-10.54-.19-2.2c-.03-.38-1.2-.91-3.52-1.56l.37-1.08c-1.78-6.22-3.59-11.04-5.44-14.46l-1.04.09-.75.76ZM491.32,108.44l.03.35.91,1.09c1.22-.34,1.78-1.01,1.69-2.01l-.38-.32-1.5.13-.75.76ZM491.87,101.27l-.19,1.88.1,1.16.35-.03,1.41-1.29-.09-1.04-.88-.74-.69.06ZM497.35,143.37l1.16-.1.16,1.85-.43.39.03.35-.38-.32-.69.06-1.09.91-.76-.75-.03-.35c-.04-.46.56-.75,1.79-.85l.25-1.19ZM499.43,167.45c.04.46-.56.75-1.79.85l-.31.49.38,4.4,2.52-.57.81-.07c-.3-3.47-.83-5.18-1.61-5.11ZM500.84,209.54l.99,7.38.99,11.46,1.67,5.8,1.04-.09-.13-1.5.26-1.07-.51-1.82v-4.2s-.61-2.86-.61-2.86l.22-1.53-1.23-6.19.5-2.38c-.8-2.11-1.64-3.28-2.52-3.52l-.31.49-.35.03ZM498.27,175.71l.39,4.51.35-.03c.71-.84,1.56-1.3,2.56-1.39l-.59-1.47.21-2.93-.49-.31-1.04.09-1.39,1.52ZM500.04,182.67l.13,1.5.79,1.1-.26,1.07,1.11.72,1.09-.91-.38-.32.13-2.58-.04-.46-1.25-.94-.69.06-.63.75ZM499.02,149.17l.76.75.16,1.85-1.35,1.98-.76-.75c.41-2.52.8-3.8,1.19-3.83ZM503.48,201.03l.76.75.35-.03-.13-1.5-.35.03-.63.75ZM498.54,131.37l.12,1.39.88.74.59-1.22-.03-.35-.75-.63-.81.07ZM499.17,95.4l-.31.49.12,1.39,1.16-.1-.09-1.04-.88-.74ZM506.52,141.41l.69-.06.88.74.03.35-.75.76-.35.03-.75-.63.25-1.19ZM502.83,80.97l.03.35.75.63.72-1.11-.88-.74-.62.87ZM505.18,100.13l-.32.38.07.81.75.63.43-.39-.06-.69-.88-.74ZM516.8,225.66l.38.32.07.81-.75.76-.38-.32-.07-.81.75-.76ZM508.4,133.44l.03.35,2.47,1.65.35-.03-.12-1.39-1.63-1.38-.35.03-.75.76ZM506.88,54.85l-.59,1.22.44,5.09c.04.46-.91,1.17-2.85,2.11l.04.46c.38.75,1.67,1.37,3.89,1.88l1.25.94.35-.03c1-.09,1.38-1.6,1.13-4.53l-.03-.35c-.75-.63-1.84-2.91-3.27-6.83l-.35.03ZM508.2,109.55l-.22,1.53,1.23.71.35-.03.62-.87-.03-.35-1.14-1.07-.81.07ZM514.49,160.9l-.19,1.88.88.74.06.69-1.5.13-1.26-1.06-.09-1.04c.17-.79.87-1.24,2.1-1.35ZM509.04,101.66l.03.35,1.16-.1-.09-1.04-.35.03-.75.76ZM515.53,167.58l1.04-.09.57,2.52-.35.03-1.13-.95-.13-1.5ZM509.53,89.72l-.32.38.16,1.85,1.04-.09-.13-1.5-.75-.63ZM510.87,105.24l.03.35,1.26,1.06.69-.06-.1-1.16-1.88-.19ZM512.24,121.21c.05.54.69.84,1.94.88l.26-1.07-.51-1.82-.35.03-1.35,1.98ZM515.88,145.86l.07.81.69-.06-.07-.81-.69.06ZM509.79,71.04l.09,1.04c1.32.82,2.02,1.77,2.11,2.85l-.63.75.16,1.85,1.85-.16,1.98,1.35.32-.38-.16-1.85-2.52-3.52-.87-.62.19-1.88-.39-.43-1.5.13-.62.87ZM513.36,112.49l.03.35c1.08.84,1.67,1.8,1.76,2.88l.38.32.69-.06.75-.76-.13-1.5c-1,.09-1.57-.6-1.69-2.07l-1.16.1-.63.75ZM515.96,138.73l.39.43.46-.04.62-.87-.38-.32-.35.03-.75.76ZM512.57,85.73l1.59.91c.77-.07,1.13-1.34,1.07-3.82l-.35.03c-.69.06-1.06-.14-1.1-.6l.22-1.53-.38-.32-.46.04c-.69.06-.89,1.83-.59,5.3ZM520.95,174.92l.35-.03,1.26,1.06-.63.75-.46.04-1.14-1.07.63-.75ZM521.55,177.9l.46-.04c1.75.4,2.71,1.67,2.9,3.83,1.96,2.01,3.38,3.99,4.24,5.93,1-.09,1.53.14,1.57.68l.03.35-1.03,1.6.09,1.04c1.58,1.19,2.4,2.13,2.46,2.82l1.94.88,1.13-.45.38.32.04.46-2.64,3.14c-2.88-2.78-4.78-5.85-5.69-9.19-.62.05-1.62-1.61-3-4.99-.93.08-1.68-1.45-2.26-4.59l-1.26-1.06.63-.75ZM516.51,119.33l.03.35.88.74,1.04-.09-.51-1.82-.69.06-.75.76ZM517.93,126.32l.09,1.04.98-.78,2.85,1.97,1.01-.44-.1-1.16c-.54-.89-1.2-1.3-1.97-1.23l-2.86.6ZM520.03,142.58l-.32.38.03.35.75.63.43-.39-.03-.35-.87-.62ZM518.3,122.56l.03.35,1.26,1.06.62-.87-.03-.35-1.14-1.07-.74.88ZM522.81,161.35l.75.63.75-.76-.88-.74-.62.87ZM522.13,149.4l.1,1.16.75.63.43-.39-.06-.69-.88-.74-.35.03ZM525.1,154.04l-.32.38.1,1.16c.11,1.31.69,2.12,1.72,2.42l.69-.06c-.54-2.67-1.27-3.97-2.2-3.89ZM526.46,164.42l-.72,1.11.07.81.81-.07.62-.87-.03-.35-.75-.63ZM521.33,110.28l.26,3.01,1.26,1.06.35-.03,1.75-1.32-3.15-2.76-.46.04ZM528.25,169.05l-.32.38.04.46.87.62.63-.75-1.23-.71ZM527.28,140.09l.87.62.35-.03,1.38-1.63-.49-.31c-1.44.44-2.14.88-2.1,1.35ZM529.5,161.83l.2,2.32,1.81-.62-.06-.69-1.14-1.07-.81.07ZM527.18,117.24l.04.46.87.62,1.39-.12.75-.76-1.98-1.35-1.07,1.14ZM531.52,167.72l.06.69.87.62.26-1.07-.45-1.13-.74.88ZM530.16,120.72l-.42.5.32,3.7,1.85-.16.74-.88-.03-.35-2.46-2.82ZM535.55,183.35l.07.81c.85-.07,1.4.85,1.64,2.77l.81-.07-.25-2.89-1.63-1.38-.63.75ZM531.91,128.85c.19,2.16,1.1,4.18,2.74,6.06l1.5-.13-.67-3.67c1.03-.63,1.6-1.3,1.69-2.01l-1.22-.59-1.01.44c-.63-1.03-1.19-1.61-1.66-1.72l-.35.03c-.62.05-.96.59-1.03,1.6ZM537.34,178.41l.75.63.81-.07.63-.75-1.23-.71-.35.03-.62.87ZM535.64,137.04l.04.46,1.13.95,1.69-2.01,1.88.19.81-.07.63-.75-2.26-.51-1.5.13-2.43,1.61ZM537.44,140.27l.76.75c1.44-.43,2.14-.88,2.1-1.35l-.03-.35-1.14-1.07-1.69,2.01ZM538.71,142.84l3.52,5.64.32-.38.35-.03-2.05-6.24-1.04.09-1.09.91ZM542.66,149.5l.07.81c.15,1.78,1.02,3.29,2.61,4.56l.81-.07-1.82-3.57.26-1.07-1.23-.71-.69.06ZM542.04,128.68l1.52,1.39.03.35-.62.87-.35.03-1.26-1.06-.06-.69.74-.88ZM543.18,133.83l-1,1.95.91,1.09.09,1.04c.07.85-.23,1.77-.93,2.76l1.25.94,1.01-.44,1.69,2.07-.19,1.88c1.67.48,2.58,1.02,2.71,1.63.07.77-.75,1.23-2.45,1.38l.09,1.04,1.26,1.06.63-.75c.77-.07,1.23.75,1.38,2.45l1.1.6,1.76-1.2c-.19-2.24-1.25-4.63-3.18-7.19l-.45-1.13.22-1.53c-1.47.13-2.31-1.04-2.52-3.52l-.49-.31-.06-.69,1.03-1.6c-.07-.85-1.36-1.36-3.86-1.53ZM548.55,161l.03.35.75.63.35-.03.75-.76-1.26-1.06-.62.87ZM549.88,164.27l.03.35,1.16-.1-.1-1.16-.35.03-.74.88ZM551.68,153.97l.03.35,1.17,1.42-2.42,1.72.1,1.16.75.63,1.72-1.66.35-.03c.13,1.47.58,2.17,1.35,2.1l.35-.03,1.1-.79c-.67-2.35-1.74-4.36-3.2-6.02l-.35.03-.95,1.13ZM552.98,169.13l.13,1.5.35-.03.32-.38c.38-1.04,1.34-1.63,2.88-1.76l.32-.38-.03-.35-1.26-1.06-.35.03-2.36,2.42ZM552.79,162.85c.38,1.68.8,2.5,1.26,2.46l.46-.04c.07-1.95.33-2.94.79-2.98.62-.05,1.25,1.37,1.88,4.27.98.54,1.83,1.83,2.55,3.86l.35-.03.43-.39.35-.03c-.99-3.33-2.21-5.83-3.68-7.5-.15-1.7-.45-2.53-.91-2.49-1.31.11-2.47,1.07-3.49,2.87ZM559.94,176.81l.16,1.85.75.63.46-.04.63-.75-.13-1.5-1.26-1.06-.62.87ZM561.83,181.08l.07.81c1.15,1.61,1.96,2.4,2.42,2.36l.35-.03-.13-1.5c-.99-1.62-1.68-2.42-2.07-2.39l-.63.75ZM562.63,172.85l.06.69.69-.06-.06-.69-.69.06ZM564.76,185.38l-.32.38.03.35.75.63.43-.39-.03-.35-.87-.62ZM559.95,103.69l1.62,1.26c-.46.04-.66.45-.59,1.22.35,2.23.68,3.32.98,3.3l-.19,5.96.38.32,1.16-.1,1.3-1.16-.51-1.82.49-3.77c-.61-3.45-1.19-5.65-1.74-6.61-1.99.4-2.96.88-2.91,1.42ZM568.53,189.84l-1.03,1.6.49.31.35-.03.95-1.13-.76-.75ZM566.1,135.93l-1.94,3.2c1.05.46,1.65,1.53,1.79,3.23.69-.06,1.19,1.61,1.48,5l.46-.04c.46-.04.81-1.43,1.04-4.17l-.19-2.2c-1.46-3.37-2.34-5.05-2.65-5.02ZM568.98,195.05l.06.69.76.75,1.25-3.14-.38-.32-.35.03-1.35,1.98ZM559.5,80.88l.61,7.06.88.74c.25-2.51.61-3.78,1.07-3.82l-.92-2.6.63-.75-.07-.81-.75-.63-.69.06-.75.76ZM558.89,69.73l.88.74.35-.03,1.38-1.63-.87-.62-.35.03-1.39,1.52ZM563.13,119.05l.87.62-.49,3.77.75,3.32.19,2.2.76.75,1.5-4.21-.04-.46c-.84-.78-1.36-2.22-1.54-4.3l-.32-3.7-.75-.63c-.46.04-.77.92-.94,2.65ZM564.31,132.71l.1,1.16,1.63,1.38.74-.88-.19-2.2-.87-.62c-.97.47-1.44.86-1.42,1.17ZM559.67,73.4l.07.81.75.63.35-.03.68-1.57-.87-.62-.35.03-.63.75ZM559.9,76.06l.03.35.75.63.32-.38-.03-.35-.38-.32-.69.06ZM566.87,153.01l1.14,1.07c.09-1.72.79-2.63,2.1-2.75l-.1-1.16-1.16.1-1.98,2.74ZM570.8,176.93l-.71,1.23.87.62.69-.06-.09-1.04-.76-.75ZM565.86,93.86l.03.35,1.25.94,2.08-1.58-.1-1.16-.87-.62-.35.03-2.04,2.04ZM568.31,122.33l.19,2.2c.58,1.27,1.49,1.93,2.74,1.98.78,2.73,1.4,4.08,1.86,4.04l.35-.03.74-.88c-.19-1.3-.92-2.6-2.2-3.89l-.51-5.9.51-2.26-.85-1.79,1.41-1.29-.49-.31-1.04.09c-.85.07-1.4,2.22-1.66,6.44l-1.03,1.6ZM578.29,230.05l.56,1.12-1.07,1.14.07.81,1.69,2.07,2.2-.19,1.98,1.35.35-.03,1.06-1.26-.06-.69-1.32-1.75v-4.08s-.07-.81-.07-.81l-.75-.63-.35.03c-1.16.1-2.59,1.08-4.3,2.94ZM568.34,114.52l.87.62.63-.75-.76-.75-.74.88ZM571.41,140.72l.38.32.69-.06.75-.76-.07-.81-.81.07-.94,1.25ZM568.44,102.15l.07.81c.06.69,1.1,1.07,3.13,1.13l.32-.38-.06-.69c-.11-1.31-.56-2.01-1.35-2.1-1.46.2-2.16.62-2.11,1.23ZM572.05,144.05l1.98,1.35c-1.13,1.34-1.65,2.47-1.57,3.4l1.26,1.06,1.85-.16.63-.75-.45-1.13.94-1.25-.81-1.33.09-3.04-1.1-.6-1.85.16c-.75.3-1.07,1.07-.97,2.3ZM569.37,108.83l.06.69.88.74.94-1.25-.03-.35-.76-.75-.35.03-.74.88ZM572.38,134.34l.57,2.52,1.5-.13.63-.75-.04-.46c-.11-1.23-.55-1.93-1.35-2.1l-.69.06-.62.87ZM570.71,110.93l.1,1.16,1.04-.09.74-.88-.38-.32-1.5.13ZM574.41,153.88l.07.81c.06.69,1.07,1.07,3.01,1.14l.72-1.11-.13-1.5c-.05-.62-.59-.96-1.6-1.03-1.41.74-2.1,1.31-2.07,1.69ZM576.42,177.26l.75.63,1.5-.13.63-.75c-.05-.62-.55-.96-1.49-1.04-.97.47-1.44.9-1.41,1.29ZM576.41,164.9l.49.31.35-.03c.98-.39,1.66-1.08,2.04-2.04l-.03-.35-1.25-.94c-.62.05-1.15,1.07-1.6,3.05ZM577.45,171.58l.09,1.04,2.24.27.31-.49-.12-1.39-2.52.57ZM579.41,178.05l-1.23,1.97.07.81c1.31-.11,2.12-.69,2.42-1.72l-1.26-1.06ZM578.09,174.9l.75.63.75-.76-.07-.81-.81.07-.62.87ZM579.35,185.52l.04.46.75.63,1.06-1.26-1.22-.59-.63.75ZM572.78,101.07l.13,1.5c.77-.07,1.33,1.87,1.67,5.8l.35-.03-.13,2.58,1.85,21.53,1.29,1.41-.72,1.11.13,1.5,1.29,1.41-.19,1.88.75.63-.59,1.22.75.63c.16-1.72.82-2.64,1.98-2.74l-.03-.35-1.63-1.38.36-1.2-1.77-11.04-.25-2.89c-.11-1.23-.39-1.83-.85-1.79l.19-1.88-.9-6.34,1.42-1.17c-.41-1.13-1.09-1.85-2.05-2.16l-.03-4.43-.1-1.16-1.28-1.29-.04-.46c-.04-.46.33-.73,1.1-.79l.32-.38-.07-.81-1.25-.94-1.69,2.01ZM573.49,95.76l1.22.59,1.3-1.16-.76-.75-.69.06-1.06,1.26ZM571.75,61.98l.38.32.03.35-.9,3.11.03.35,1.26,1.06.35-.03,1.97-2.85c-.18-2.08-.65-3.52-1.42-4.31l.19-1.88-.38-.32-.81.07c-.46.04-.69,1.42-.69,4.14ZM580.03,145.93l.88.74.35-.03.62-.87-.75-.63-.35.03-.75.76ZM582.55,84.49l1.13,3.63c-3.41,1.07-5.04,2.46-4.89,4.15l.13,5.59.64,3.33-.22,1.53,1.11,4.8-.16,6.31.82,1.45-.32.38c.45,3.46.99,5.16,1.61,5.11.39-.03.66-.95.81-2.75l-.47-1.36.62-.87,1.16-.1,2.58.13c-.06-.69.68-1.11,2.23-1.24l-.2-6.4-.25-2.89-.54-2.17.25-1.19-.54-2.17.06-3.39-.87-.62,1.35-1.98-.04-.46c-.73-.4-1.23-2.07-1.48-5l-1.6-1.03-.32.38-.06-.69,1.85-.16.38.32.35-.03.59-1.22-.03-.35-3.92-2.23-1.76,1.2ZM578.12,76.36l.59,1.47-.56,2.96.55,6.37,1.25.94c.46-.04.73-1.03.79-2.98l-.76-.75-.09-1.04,1.03-1.6-.07-.81-.9-.97-.03-.35,1.03-1.6-.88-.74-.19-2.2-.35.03-1.41,1.29ZM584.42,118.38l.78.98.13,1.5-3.1,3.3-.19,1.88.38.32.03.35-.16,2.23,1.19.25,1.01-.44,3.77.49,1.12-.56,1.2.36.31-.49-.03-.35-.51-1.82v-4.08s-.29-3.36-.29-3.36c-1.13-1.38-2.08-2.04-2.85-1.97-1.92.32-2.85.79-2.79,1.41ZM584.32,143l-.72,1.11.04.46,2.01,1.69.31-.49-.03-.35-1.61-2.43ZM577.8,72.65l.49.31.35-.03.94-1.25-.57-2.52.32-.38-.38-.32-.35.03c-.46.04-.73,1.43-.81,4.15ZM588.82,130.25l-3.7.32-1.38,1.63.03.35.35-.03,1.82-.51.38.32.07.81c.03.39-1.06.83-3.27,1.33l.07.81c2.15,1.53,3.34,3.52,3.55,5.99l-.16,2.23,1.6,1.03,3.24-.28.74-.88-.47-1.36c.62-.05.98-1.21,1.1-3.48l-1.2-1.76-.55-6.37-.38-.32-.03-.35-1.82.51ZM582.03,90.6c.46-.04.8,1.18,1.01,3.64l.38.32c.1,1.16.7,2.23,1.79,3.23l-1.57,3.4.45,1.13c-.42,2.29-.79,3.45-1.1,3.48l-.46.04-.76-.75-.03-.35.63-.75-.58-2.63-.16-1.85.16-2.23-.51-1.82.68-1.57-.71-2.85.43-.39.35-.03ZM583.14,107.64c.05.54.94.97,2.68,1.29l.85,1.79-.32.38-.69.06-1.23-.71c-.3,1.04-.6,1.57-.91,1.59l-.46.04-.38-.32-.35.03c0-2.72.27-4.1.81-4.15ZM578.6,64.3l.16,1.85.88.74.32-.38-.13-1.5-.88-.74-.35.03ZM586.71,149.09l.13,1.5,2.11,2.85.22,2.55-.71,1.23.06.69,1.29,1.41-.19,1.88.48,1.48-.75.76c.47.97.9,1.44,1.29,1.41.86-.85,1.95-1.33,3.26-1.45l.35-.03.76.75-3.52,2.52c.07.77-.53,2.42-1.79,4.94l.91,1.09-.11,4.09.49.31,2.2-.19.55,2.29-1.07,1.14.1,1.16.46-.04.32-.38,1.53.22c1.91-.4,2.84-.86,2.79-1.41l-.13-1.5-2.51.68c-.44-1.52-1.13-2.24-2.05-2.16l-.06-.69,2.39-2.07.35-.03,1.22.59,1.13-.45-.09-1.04c-.07-.85-1-1.27-2.79-1.28l-.16-1.85-.79-1.1c1.37-1.21,1.98-2.74,1.82-4.59l-.38-.32.19-1.88-.04-.46c-.25-2.93-.76-4.37-1.54-4.3-1,.09-1.78-.35-2.33-1.32-.04-.46.33-.73,1.1-.79l1.07.26.43-.39-.26-3.01-.65-2.16.55-3.08-2.82-1.62c-2.47.21-3.67.71-3.6,1.48.07.77-.33,1.54-1.2,2.32ZM579.63,62.82l.03.35,1.04-.09-.1-1.16-.35.03-.62.87ZM584.57,76.85l-1.03,1.6.07.81,3.7-.32c-.71-1.03-1.62-1.73-2.75-2.1ZM583.36,72.17l.22,2.55.62,1.81.69-.06.32-.38.35-.03-.51-1.82-.06-.69.71-1.23-.16-1.85-.81.07-1.38,1.63ZM584.09,63.13l-.69,4.14.07.81.69-.06c.45-.19.9-.85,1.35-1.98-.4-1.99-.87-2.96-1.42-2.91ZM599.24,213.32l.13,1.5.87.62.6-1.1-.1-1.16-.75-.63-.75.76ZM599.59,217.37l.88.74.35-.03-.13-1.5-.35.03-.75.76ZM590.04,57.72l.16,1.85-.77,4.61-.32.38.03.35,1.14,1.07.81-.07.19-1.88-.51-1.82.62-.87-.67-3.67-.69.06ZM602.22,216.79l.19,2.2,1.24,2.23,1.16-.1-.13-1.5-.51-1.82.62-.87c-.36-1.45-.77-2.15-1.23-2.11l-1.35,1.98ZM595.71,111.34l.81-.07.76.75-.63.75-.87-.62-.07-.81ZM597.22,119.49l.75.63-.62.87-.88-.74.75-.76ZM595.59,96.43l.39.43.03.35-.63.75-.49-.31-.03-.35.74-.88ZM598.14,126.06l.39.43.32,3.7-.63.75-.49-.31-.32-3.7.74-.88ZM600.34,151.65l.38.32.04.46-.63.75-.49-.31-.03-.35.74-.88ZM600.63,155l1.04-.09.06.69-.54,1.91-1.16.1-.03-.35.62-2.27ZM595.17,83.4l.35-.03.23,2.66-.63.75-.38-.32-.19-2.2.62-.87ZM599.89,146.44l.69-.06.48,1.48-.32.38-.35.03-.38-.32-.13-1.5ZM601.24,162.06l1.04-.09.25,2.89-1.04.09-.25-2.89ZM601.85,169.13l1.04-.09.06.69-.63.75-.38-.32-.09-1.04ZM602.17,172.83l1.04-.09.06.69-.63.75-.38-.32-.09-1.04ZM602.51,176.88l1.04-.09.19,2.2-1.04.09-.19-2.2Z"/><path class="cls-1" d="M706.78,53.74l5.21-.45c2.34.96,3.68,2.1,4.02,3.39l5.31,6.19,3.01-.26c4.94-.43,8.87.48,11.78,2.72,7.06,4.29,11.52,8.26,13.39,11.91,1.42.27,4.45,3.85,9.09,10.76l2.27,4.7c-.06,2.03-.32,3.06-.78,3.1l-5.92-7.77-1.13.45-.03-.35c-.14-1.62-1.55-3.6-4.24-5.93l.19-1.88c-1.72-.16-2.61-.48-2.65-.94l.32-.38-.38-.32-.35.03-1.66,2.36,2.74,1.98.07.81-1.69,2.01c.36,1.45.81,2.15,1.35,2.1l1.48-.48c1.56,1.81,3.11,2.65,4.65,2.52l.07.81c.04.46-.32.73-1.1.79l-.32.38.03.35.48,1.48-3.57,1.82c-.69-1.65-1.22-2.46-1.61-2.43l-.46.04c-.62.05-1.14,1.19-1.57,3.4l-.31.49-.69.06-1.89-.3-9.54,1.64.51,5.9c.04.46-.32.73-1.1.79l-3.39-.06-7.94,2.55c-1.39.12-3.39-2.82-6.01-8.81-1.42-2.05-2.81-5.16-4.18-9.32-.38.03-1.1-1.03-2.14-3.2-3.14-4-4.86-6.85-5.17-8.53l-.38-.32-1.85.16c-4.42,4.66-7.46,8.65-9.11,11.98l-1.59,3.17c-.85.07-1.93,1.92-3.26,5.53-3.74,5.3-6.24,9.25-7.49,11.84l-11.18,17.76c-2.36,2.38-4.04,4.51-5.05,6.38-.62.05-1.54,1.1-2.76,3.15-1.02,1.64-1.81,2.49-2.35,2.53l.28,3.24c.47.89,2.17,2.15,5.1,3.76,6.71,8.44,12.37,16.39,16.98,23.84.54-.05.87.66,1,2.13,1.12.37,2.53,2.27,4.22,5.7,3.38,4.92,5.27,8.33,5.66,10.24,2.12,2.07,4.15,5.28,6.08,9.62,1-.09,1.59.84,1.75,2.76,3.32-.29,7.26-2.33,11.83-6.15,3.25-3.78,6.59-9.66,10.03-17.66,1.72-2.63,3.19-4.01,4.43-4.11l7.09-.26,7.38-.99.31-.49.5.42.03.35c-1.5.67-2.8,1.76-3.92,3.25l.5.42.35-.03c6.6-2.82,11.17-4.34,13.72-4.56l4.86-.42c3.32-.29,6.45,1.31,9.39,4.79l.09,1.04-2.78,2.92c-4.25,10.24-8,18.53-11.27,24.88-2.48,4.57-4.23,8.68-5.23,12.35-.76.22-1.06,1.26-.9,3.11-1.43,3.23-2.07,5.78-1.91,7.63-3.26,5.49-7.3,9.06-12.14,10.72-.5.51-2.09,1-4.77,1.46l-.62.87-2.66.23-1.11-.72-1.16.1-1.09.91-2.2.19c-3.01.26-6.52,1.53-10.52,3.82l-.35.03c-.38.03-.78-.56-1.2-1.76l-2.62.69-.35.03c-.46.04-.74-.44-.82-1.45l-.49-.31-.69.06-3.2,2.14c-6.66-4.17-10.56-6.2-11.72-6.1-4.01.35-7.85-.84-11.5-3.56-6.37-4.43-9.66-7.88-9.87-10.35-.93.08-2.53-2.74-4.81-8.45-.62.05-1.2-.91-1.76-2.88-1.51-1.27-4.33-5.15-8.46-11.63-1.27-.28-3.81-4.02-7.61-11.24-1.91-1.39-2.96-3.28-3.17-5.67l-3.37-5.31c-.38.03-1.25-1.41-2.59-4.33-.54.05-.9-1.01-1.09-3.17l-1.95-1,.19-1.88-.06-.69c-1.83-1.4-2.84-3.17-3.03-5.34-2.99-3.09-4.54-5.32-4.66-6.71l.32-.38c-2.73-2.8-4.21-5.55-4.44-8.25l-.54-2.17c2.62-1.16,4.23-2.81,4.82-4.96l-.12-1.39-3.84-5.27-.07-.81c3.17-4.7,7.37-7.9,12.59-9.6l.31-.49c-.17-1.93-.98-2.83-2.45-2.7-.09-1,1.28-4.11,4.09-9.33,3.26-5.49,5.24-8.26,5.93-8.32l1.22.59,1.85-.16-.03-.35-.48-1.48c.42-1.51,1.2-2.32,2.36-2.42l.38.32,1.35-1.98-.78-.98-.04-.46c2.16-.19,3.6-2.02,4.31-5.5l4.5-4.59,12.27-13.3c.62-.05,3.41-2.43,8.37-7.13l3.36-.29c3.13-3.38,4.67-5.38,4.62-5.99,2.57.01,4.23.38,4.99,1.09l.35-.03c1.54-.13,2.58-1.19,3.11-3.18l1.44-.94,4.91,1.44,1.5-.13,2.44-2.78,1.85-.16,1.1.6,2.66-.23c-.06-.69.14-1.06.6-1.1ZM633.9,168.93l.75.63.63-.75-.06-.69-.69.06-.63.75ZM637.11,176.47c.03.39.93.82,2.68,1.29.5,2.21.98,3.3,1.45,3.26l.35-.03.32-.38.46-.04c-.15-1.7-1.41-3.34-3.81-4.92l-.81.07-.63.75ZM632.14,114.62l.06.69.88.74.84-2.4-.38-.32-.35.03-1.06,1.26ZM634.8,110.31l.09,1.04c2.19-2.52,3.29-4.21,3.3-5.07l-.39-.43-.46.04c-1.17.8-2.02,2.27-2.54,4.42ZM652.19,148.35l.06.69.81-.07-.87-.62ZM654.78,143.23l-.59,1.22,1.13.95.72-1.11-1.26-1.06ZM654.33,133.94l1.45,3.26.69-.06c3.07-3.22,4.82-5.86,5.27-7.92,4.86-5,7.18-8.7,6.97-11.1,1.54-.13,2.66-1.59,3.36-4.37.62-.05,1.75-1.39,3.39-4.02,1.37-1.21,2.01-2.39,1.91-3.55l-.38-.32-.46.04c-1.77,1.09-5.79,6.29-12.07,15.62-1.77,1.09-5.15,5.22-10.13,12.42ZM667.55,179.1l-.91,1.59.09,1.04c1.8,3.73,4.03,6.65,6.7,8.75l.95-1.13c-.77-.79-1.33-1.87-1.68-3.24l-1.95-1,.32-.38-.03-.35c-1.48-3.6-2.64-5.37-3.49-5.3ZM669.78,161.76l.29,3.36,6.25,7.62.81-.07-.19-2.2c-.11-1.31-.56-2.01-1.35-2.1l-.32.38-.35.03c-.22-2.55-1.82-4.9-4.81-7.05l-.35.03ZM673.9,191.96l.88,2.14.46-.04c.46-.04.85-.93,1.17-2.67l-1.1-.6-1.42,1.17ZM676.55,196.98l.03.35.81-.07.95-1.13-.04-.46-.35.03-1.41,1.29ZM678.91,206.81c.29,1.53.74,2.27,1.36,2.22l.69-.06.19-1.88-1.6-1.03-.63.75ZM678.5,197.98l.38.32-.19,1.88.03.35.94,1.44.35-.03c.46-.04.75-.8.85-2.29l-1.14-1.07.25-1.19-.38-.32-.35.03-.74.88ZM681.43,210.32l.07.81.35-.03-.07-.81-.35.03ZM679.25,175.52l.09,1.04c1.57,1.11,2.4,2.17,2.49,3.17l1.17,1.42.03.35-.59,1.22.75.63c.75-.3,1.07-1.06.97-2.3-.79-.17-1.24-.86-1.35-2.1l-.1-1.16c-.77.07-1.48-.88-2.11-2.85l-.38-.32-.35.03-.62.87ZM682.82,212.89l.38.32.35-.03.75-.76-.5-.42-.35.03-.62.87ZM682.4,203.94l.03.35c.93,1.71,1.73,2.53,2.43,2.47l1.53.22.32-.38-.04-.46-.38-.32-3.55-1.91-.35.03ZM682.55,184.1l-.19,1.88,1.11.72.74-.88-.06-.69-1.26-1.06-.35.03ZM684.7,213.07l.06.69c.05.54.57.77,1.57.68l.38.32.03.35-.71,1.23c2.36,2.13,3.64,3.89,3.84,5.27,1.51.42,2.73,1.44,3.65,3.07l-.26,1.07c.69-.06,1.11.64,1.23,2.11l1.6,1.03,2.66-.23.19-1.88c-.11-1.23-1.23-2.61-3.39-4.14-.07-.77-1.54-2.04-4.41-3.82l-1.38-2.45-.32.38-.69.06c-.31.03-.91-1.05-1.79-3.23-.46.04-.72-.29-.78-.98l-.49-.31-.35.03-.63.75ZM685.11,188.08l-.63.75c.85,1.79,1.56,2.74,2.11,2.85l.94-1.25-.06-.69c-.46-.89-1.25-1.45-2.36-1.66ZM688.52,227.67l-.32.38.03.35c.28,3.24,1.04,4.81,2.27,4.7l.69-.06c.75-.3,1.07-1.07.97-2.3-1.51-.41-2.29-.85-2.33-1.32l.32-.38-.03-.35-1.6-1.03ZM688.02,208.36l.44,1.01-.19,1.88.69-.06,1.07-1.14c-.64-1.11-1.19-1.68-1.66-1.72l-.35.03ZM687.1,193.51l.38.32.35-.03-.1-1.16-.62.87ZM689.17,195.9l.1,1.16,1.16-.1.62-.87-.38-.32-1.5.13ZM690.47,211.06l.13,1.5.75.63,1.35-1.98-.38-.32-1.85.16ZM691.24,198.28c.15,1.7.89,3.15,2.24,4.36l.69-.06-.13-1.5c-.77-.79-1.33-1.87-1.68-3.24l-.46.04-.32.38-.35.03ZM694.44,213.75l.06.69.76.75,1.81-.62c.3.75,1.34,1.05,3.11.9l.35-.03.75-.76-1.23-.71-1.13.45c-.14-.69-1.13-.95-2.98-.79l-1.5.13ZM705.29,213.87l-1.19-.25-2.36,2.42.76.75c-2.07,2.12-3.05,3.8-2.95,5.04l.04.46c.06.69,1.1,1.07,3.13,1.13l4.61-3.31-.49-.31-.35.03-1.48.48-.38-.32-.04-.46.32-.38-.03-.35-.75-.63c3.06-2.44,4.78-4.1,5.17-4.99l-.75-.63.91-1.59-.75-.63-.35.03c-.54.05-.77.53-.69,1.46-1.47.13-2.15.81-2.04,2.04l-.35.03ZM711.13,208.58l.13,1.5.81-.07.62-.87-.75-.63-.81.07ZM713.01,204.69l.49.31.35-.03.63-.75-.39-.43-.35.03-.74.88ZM715.04,201.13c.05.54.7.87,1.95,1l-.04-.46.26-1.07-.38-.32-1.16.1-.63.75ZM719.6,232.46l-.43.39.07.81.9.97-.74.88.09,1.04.46-.04.95-1.13-.45-1.13.35-.03c.54-.05.77-.57.68-1.57l-.49-.31-.32.38-.35.03-.38-.32-.35.03ZM720.98,226.74l1.17,1.42c.07.77-.21,1.65-.82,2.64l.76.75,1.06-1.26-.32-3.7-.87-.62-.35.03-.63.75ZM719.18,197.74l.1,1.16.69-.06-.1-1.16-.69.06ZM724.17,190.67l-1.66,2.36-.38-.32-.35.03-1.13,4.53.69-.06c.54-.05.76-.69.65-1.92,1.24-.11,2.01-1.03,2.33-2.77,1-.09,1.48-.4,1.44-.94l-1.59-.91ZM726.3,219.52l-1.94,3.2,1.1.6c-.03-.31.81-1,2.5-2.08l-.03-.35-1.63-1.38ZM726.94,218.77l.38.32.81-.07.95-1.13-.76-.75-1.38,1.63ZM730.65,183.34c-.82,3.1-2.04,4.72-3.66,4.86l-1.2-.36-.31.49.12,1.39.76.75.35-.03c1.78-.15,2.95-.99,3.52-2.52l.81-.07,1.88.19,1.25-3.14-.06-.69c-.05-.54-1.2-.83-3.46-.87ZM728.92,216.03l.87.62c-.04-.46.29-.72.98-.78l.42-.5-.06-.69-1.16.1-1.06,1.26ZM729.79,212.57l.13,1.5,2.2-.19.74-.88-1.69-2.07-1.38,1.63ZM727.91,74.31c.85,1.79,2.52,3.52,4.99,5.17l.31-.49-.19-2.2-4.02-3.39-.35.03-.74.88ZM741.56,211.21l.03.35.65,2.16-1.59,3.17.32,3.7-.24,2.59.49.31.35-.03,1.38-1.63-.49-.31-.03-.35c-.17-2,1.57-6.63,5.22-13.86-.06-.69.94-2.14,3.01-4.34l.75-3.45-1.85.16c-.85,1.86-2.31,3.35-4.4,4.46l-2.18,5.79c-.99.24-1.46.67-1.41,1.29ZM740,197.12l.1,1.16,1.16-.1-.1-1.16-1.16.1ZM742.1,195.77l.07.81.81-.07-.88-.74ZM733.76,81.27l-.32.38.03.35.75.63.75-.76-1.22-.59ZM738.99,72.89l-.31.49.03.35c.03.39.68.68,1.94.88l.32-.38-.09-1.04-1.89-.3ZM747.68,91.27l-.32.38.06.69,1.16-.1-.03-.35-.87-.62Z"/><path class="cls-1" d="M878.58,28.22l1.63,1.38,1.82-.51,2.01,1.69,2.1-1.35.81-.07,4.91,1.44.49.31.1,1.16c-.92,1.09-1.66,4.15-2.24,9.17l-.35.03c.11,1.24,1.76,1.95,4.97,2.14l.56,1.12c-1.66,4.19-2.65,14.34-2.98,30.46l.06.69-.71,1.23.41,4.75-.47,2.72.96,7.03c-1.66.53-2.47,1.07-2.43,1.61l.26,3.01,2.77,2.33c.05,3.26-.2,4.91-.74,4.96l-1.17-1.42-.81.07.67,7.76.88.74.62-.87-.57-2.52.35-.03,1.26,1.06.25,2.89-.71,1.23,2.64,30.68.91,1.09.03.35-.71,1.23.16,1.85,1.03,2.48-.74.88.9.97.13,1.5.54,2.17-.03,3.73.96,11.11.54,2.17-.93,2.76.9.97.1,1.16-.25,1.19.51,1.82.06.69.99,7.38-.63.75.51,1.82-1.12.56-1.08-.37-.42.5.06.69,2.01,1.69c.04.46-.29.72-.98.78l-.31.49.06.69c.07.77.83,1.09,2.3.97,1.5,2.98,2.31,5.13,2.42,6.44l-.09,3.04,1.13.95.13,1.5-1.56,3.52.1,1.16.9.97.23,2.66c-.46.97-1.04,1.49-1.73,1.55l-3.13-1.13-1.35,1.98h-5.25s-.35.02-.35.02l-1.69-2.07c-.93.08-1.8-.19-2.64-.82-2.47.21-3.62,1.28-3.46,3.21-.26,3.29-.62,4.95-1.09,4.99l-1.85.16-1.88-.19-1.82.51c-4.94.43-7.45.14-7.54-.87-.1-1.16-.4-1.99-.91-2.49l-.13-1.5-1.42-6.99.36-1.2c-.46.04-.9-.54-1.32-1.75l.26-1.07-.45-1.13.13-2.58-.85-1.79.54-1.91c-.52-.65-1.02-2.36-1.49-5.12l.32-.38-.51-1.82-.03-.35.15-2.35-1.09-3.17.71-1.23-1.51-8.03.42-.5-.03-.35-.55-1,.07-4.55-.49-.31-.35.03-.13-5.59-.26-3.01c-.21-2.47-.71-4.14-1.48-5l.59-1.22-.03-.35-.51-1.82.16-2.23-.04-.46-.78-.98.59-1.22-.03-.35-.75-.63-1.5.13-6.68,5.01c-11.62,10.41-18.62,15.75-21.01,16.04l-1.26,3.02.39,4.51.9.97.23,2.66-.72,1.11.61,7.06.94,1.44,2,19.19c.46-.04,1.12,1.77,1.98,5.43l4.02,3.39.16,1.85-1.69,2.01-5.93.16-1.48.48-1.19-.25-1.82.51-2.95-.45-1.16.1c-.77.07-1.08.95-.94,2.65-1.46,2.85-3.05,4.34-4.74,4.49l-1.16.1-1.22-.59-7.76.67-.94,1.25,1.28,14.82-.75.76-1.04.09-3.04-.09-1.82.51c-4.94.43-7.48-.21-7.63-1.91-.93-7.15-1.74-10.7-2.43-10.64-.35-4.09-1.75-11.82-4.21-23.19l-.38-.32-.03-.35-2.55-25.55-.62-1.81.43-.39.35-.03-.38-.32-.04-4.54-.67-7.76.16-2.23-.51-1.82.57-1.56-.6-20.47,2.76-1.75c-.03-.38-.91-.66-2.64-.82l.12-2.69-.67-7.76.71-1.23-.35-4.05-1.03-2.48.74-.88-.35-4.05c.03-1.48.31-2.24.85-2.29s1.75.86,3.62,2.72l.69-.06c1.1-1.65,2.54-2.55,4.32-2.7l.32-.38-.03-.35c-.04-.46-1.08-.76-3.11-.9-.41-1.21-.81-1.8-1.2-1.76l-.81.07-.97.9-1.16.1-2.68-1.29-.1-1.16,1.39-1.52,2.01,1.69c2.01-.17,3.26-.05,3.76.38l1.26-1.62-.78-.98-3.64,1.01-.38-.32-.03-.35.62-.87,1.53.22.6-1.1-.54-2.17c1.44-.43,2.14-.88,2.1-1.35l-.82-1.45.26-1.07-.39-.43-.35.03-2.07,1.69-.46.04-1.52-1.39-.03-.35.63-.75,1.19.25c.38-1.04,1.07-1.61,2.07-1.69l-.03-.35c-.04-.46-.68-.64-1.91-.54l-.39-.43-.06-.69.63-.75,2.23.16.32-.38-.1-1.16-.79-1.1-.03-.35.32-.38-.03-.35-2.33-1.32-4.08,4.08c-.69.06-1.43.51-2.22,1.36l-.76-.75c1.07-1.1,1.66-2.9,1.75-5.4-.17-1.93,1.6-3.05,5.31-3.37l.35-.03.3-1.89-.88-.74-.69.06-1.81.62-.39-.43-.03-.35,3.61-1.36.47-2.72-1.98-1.35c.17,2.01-.36,3.06-1.59,3.17l-1.79.85-1.85.16-1.25-.94.43-.39,1-.55-.03-.35-.51-1.82c1.7-.15,2.45-1.34,2.26-3.58l-.38-4.4-.48-1.48c0-2.72.45-4.74,1.34-6.06l-.7-4.02-.03-.35.31-.49-.03-.35-.38-.32-.35.03-1.98,2.74-.49-.31c.12-2.19.67-4.84,1.65-7.96l1.88.19,1.04-.09c1-.09,1.41-1.25,1.22-3.49.46-.04.74-1.31.84-3.8l1.3-1.16.81-.07.75.63.03.35-1.46,4.67c-1,.09-1.48.36-1.45.82l.13,1.5,1.16-.1,1.48-.48.38.32.35-.03c3.23-.43,4.82-.96,4.76-1.58l-.9-.97.33-1.54c-1.04-.38-1.6-.95-1.66-1.72l.25-1.19c-1.3-.66-2.02-1.85-2.17-3.54l-1.16.1c-1.13,1.34-2.04,2.04-2.73,2.1l-.38-.32-.06-.69c.83-1.16,1.21-2.2,1.13-3.13l-.25-2.89,1.06-1.26,2.2-.19,1.95,1,5.46-1.64c1.51.42,2.29.85,2.33,1.32l.09,1.04-.5,2.38.47,1.36-.78,3.1.67,3.67c-.54.05-.87.7-1,1.95l.51,1.82c-.46.04-.61,1.06-.44,3.07l-.1,2.92-.74.88.09,1.04c.59.5.93,1.36,1.04,2.59l1.04-.09-.13-1.5,2.33-12.21-.47-1.36-.07-.81,1.03-1.6,4.44.08,1.16-.1,1.97,1.23.35-.03,1.73-1.55,2.89-.25c.66.49,2.21.82,4.63,1l2.14-.88c1.74.32,3.27.92,4.59,1.82l-1.46,21-.46.04.94,1.44c-.66,1.3-.94,2.57-.84,3.8l.51,5.9-.59,1.22.29,3.36-.2,7.13.49.31-.24,2.59.67,7.76-.59,1.22,1.72,20.03,1.25.94c1-.09,2.78-1.09,5.34-3.03,1.39-.12,3.9-1.19,7.54-3.21,6.21-2.79,10.05-4.25,11.52-4.37-.07-.77.79-1.23,2.56-1.39l4.05-4.43-.26-3.01-.75-.63-1.48.48-.38-.32-.03-.35,1.23-1.97-1.55-1.73c-.2-2.32.98-4.4,3.54-6.25l-.16-1.85.62-.87.35-.03.88.74-.23,1.42,1.39-.12c.54-.05.86-.81.97-2.3l-.75-.63.25-1.19-1.22-.59-.91,1.59-.46.04c-.95-.23-1.54-1.58-1.75-4.05l1.3-1.16c-.41-1.21-.81-1.8-1.2-1.76-.87.77-1.72,1.2-2.57,1.27l-.35.03-.35-4.05.75-.76,1.1.6,2.17-.54-.06-.69c-1.08.09-2.12-.71-3.12-2.41-.04-.46.56-.75,1.79-.85l.94-1.25-.51-1.82c.07-1.95.37-2.95.91-2.99l.38.32.35-.03.32-.38-.1-1.16-2.01-1.69-.35.03c-.69.06-1.06,1.72-1.09,4.99l-.45,2.95-.35.03-.38-.32-.03-.35.22-1.53-.7-4.02c.32-6.25.79-9.4,1.4-9.45l-.07-.81-.35.03-.13-5.59-.38-4.4c.69-.06,1.17-3.09,1.43-9.1l1.42-1.17,2.89-.25,2.78,1.16c2.93-.25,4.86-.88,5.78-1.9l.35-.03,4.6.65.38.32c1.31-.11,2.2-2.91,2.66-8.39.46-.04.65-.56.57-1.56l.32-.38.35-.03ZM787.12,166.01l-.23,1.42.48,1.48.2,6.4-1.07,1.14.07.81,1.38,2.45-1,1.95.32,3.7,1.79,3.23-1.66,2.36.29,3.36-.6,1.1.07.81,1.55,1.73-.32.38.03.35,1.98,1.35,1.1-.79.75.63.03.35-.32.38.04.46,1.22.59.32-.38-.19-2.2-.91-1.09.71-1.23-.12-1.39-1.73-2.53.13-2.58-.07-.81-1.16-1.3-.32-3.7c.41-.66.57-1.56.47-2.72l.35-.03-.57-2.52-.32-3.7-.79-1.1-.06-.69.59-1.22-.41-4.75-1.66-1.72-.35.03ZM790.84,205.22l.44,1.01-1.65,2.47,1.19.25c1.03-.63,1.61-1.19,1.72-1.66l-.22-2.55-.76-.75c-.54.05-.78.46-.71,1.23ZM786.16,154.89l-.48,2.61,1.04-.09.16-2.23-.38-.32-.35.03ZM782.61,105.52l1.29,1.41c-.08,2.73-.46,4.12-1.16,4.18l-.69.06c-.16-3.72.02-5.6.56-5.65ZM786.51,163.03l.06.69.76.75.35-.03,1.06-1.26-1.25-.94-.35.03-.63.75ZM784.31,129.28l.06.69c.98,1.39,2.19,2.42,3.65,3.07l-.32.38.13,1.5c.3.75,1.07,1.07,2.3.97l.31-.49-.03-.35c-.38-4.4.02-7.04,1.18-7.92l-2.65-.94-1.12.56c-.44-1.52-.85-2.26-1.24-2.23-.54.05-.84,1.08-.9,3.11l-1.38,1.63ZM782.16,100.31l1.16-.1.03.35-.62.87-.49-.31-.07-.81ZM787.52,140.9l.88.74.35-.03.62-.87-.09-1.04-.69.06-1.07,1.14ZM787.43,122.25l.03.35.88.74.62-.87-.38-.32-1.16.1ZM783.35,70.7l1.23.71.62-.87-.16-1.85-.75-.63c-.54.05-.85.93-.94,2.65ZM792.64,125.88l-.71,1.23.49.31.35-.03.63-.75-.76-.75ZM788.71,68.03c.88,1.17,1.37,2.37,1.48,3.6l.1,1.16,1.16-.1-.1-1.16c-.12-1.39.23-2.78,1.04-4.17l-1.14-1.07-1.16.1-1.38,1.63ZM791.81,86.42l.07.81.81-.07-.07-.81-.81.07ZM790.19,63.47l.03.35.87.62.35-.03.63-.75-1.14-1.07-.74.88ZM795.62,113.03l.75.63.46-.04-.13-1.5-.46.04-.62.87ZM797.59,131.87l.03.35,1.26,1.06.31-.49-.09-1.04-.76-.75-.74.88ZM797.03,115.82l.38.32.35-.03.32-.38-.06-.69-.35.03-.63.75ZM797.38,119.87l.1,1.16.63-.75-.39-.43-.35.03ZM807.78,219.04l.03.35.76.75.62-.87-.03-.35-.75-.63-.63.75ZM797.73,68.42l.13,1.5.81-.07,1.19-2.43-.75-.63-1.38,1.63ZM803.75,90.99l.07.81.81,4.01-.56,2.96.04.46.9.97-.45,8.32.38.32.03.35-.84,7.89,1,2.13.23,2.66-.72,1.11.58,6.71c1.15.68,1.85,1.63,2.11,2.85l2.69.12.81-2.75c-.86-.94-1.62-2.58-2.29-4.93l-.39-.43-.09-1.04,1.35-1.98-.48-5.56c-.05-.54-.8-.75-2.27-.62l-.03-.35c-.04-.46.67-.76,2.14-.88l.54-1.91c-1.54-.72-2.37-1.78-2.49-3.17l-.13-1.5,1.5-4.21.49-3.77-1.26-1.06-.19-2.2.45-2.95-.13-1.5-1.65-2.89-.46.04-1.69,2.01ZM805.57,133.75l.07.81c.36,1.45.81,2.15,1.35,2.1l1.06-1.26-.09-1.04-1.63-1.38-.75.76ZM808.96,155.5l.1,1.16.87.62c.67-.29.96-1.05.85-2.29l-.38-.32-.69.06-.75.76ZM806.42,112.45l.75.63-.32.38-.35.03-.87-.62.43-.39.35-.03ZM807.78,128.31l.76.75.03.35-.63.75-.87-.62-.03-.35.74-.88ZM811.54,163.9c.77-.07,1.37.97,1.78,3.11-.6.21-1.12,1.38-1.56,3.52l.58,2.63-.88,1.94.06.69.35-.03-.13,2.58.26,3.01,1.14,1.07-.23,1.42.55,2.29-.13,2.58,1.24,10.39.32,3.7c.59.57,1.24,2.23,1.94,4.96l-.22,1.53.35-.03.63-.75-.29-3.36-.82-1.45.87-3.46-.9-5.05-.07-.81.24-2.59-.75-3.32-.58-6.71-.88-2.14.51-2.26-.38-4.4.14-3.74-.75-3.32.17-3.4-.49-.31-.69.06-1.38,1.63ZM809.29,55.06l-.41,3.42-1.16.1-.06-.69.31-.49-.03-.35-.38-.32-1.16.1-1.97,6.93c.11,1.24-.23,3.13-1.03,5.69,1.01.85,2.05,1.22,3.13,1.13l.79,1.1-.72,3.79.22,2.55,2.11,2.85,1.17-2.67-.04-.46-.78-.98-.03-.35,1.03-1.6-.07-.81-1.28-1.29-.23-2.66c.69-.99,1-1.87.94-2.65l-.65-2.16.42-.5-.87-.62,1.03-1.6-.09-1.04-.91-1.09,1.69-2.01-.22-2.55-.76-.75ZM804.75,84.95l.06.69c.77-.07,1.18.17,1.23.71l.06.69-.32.38.04.46.38.32.35-.03,1.82-.51-.07-.81-1.82-3.57c-1.03.63-1.61,1.19-1.72,1.66ZM805.56,80.8l.03.35.69-.06-.1-1.16-.62.87ZM816.51,56.3l.79,1.1.03.35-.91,1.59,1.49,5.12-1.45.82-1.07-.26-.32.38.06.69.61,2.98c.13,1.54-.48,2.96-1.85,4.24l.39,4.51.38.32.03.35.32-.38.35-.03.87.62-.43.39.04.46.55,1c-2.09,1.89-3.08,3.49-2.97,4.8l.32,3.7-.72,1.11.1,1.16.78,3.66c-.29,2.9-.65,4.68-1.06,5.34l.28,3.24,1.17,1.42-.25,1.19,1.91.54.1,1.16c-1.47.13-2.18.42-2.14.88l.48,1.48-.25,1.19.38.32.35-.03,1.13-.45.06.69-1.88,3.89.06.69.82,1.45-.54,1.91c.46-.04.81,1.29,1.04,3.99l.91,1.09-1.22,3.49.75.63,1.16-.1c.58-.52,2.27-1.17,5.08-1.95.22-1.03.78-1.82,1.66-2.36l-.65-2.16.14-3.74-.87-.62-.29-3.36-.51-1.82c.46-.04.64-.68.54-1.91l1.06-1.26-.16-1.85-1.66-1.72-.03-.35,1.03-1.6c-1.27-.28-1.95-.96-2.04-2.04l.32-.38.35-.03.87.62c.46-.04.73-1.03.79-2.98-.09-1.08-.68-2.04-1.76-2.88.91-1.17,1.33-2.21,1.25-3.14l-.06-.69c-.69.06-1.51-2.24-2.46-6.9,1-.09,1.4-1.36,1.19-3.83l1.38-1.63-.87-.62-.32-3.7.71-1.23-.06-.69-1.26-1.06-.97.9-.88-.74-.06-.69c1.36-1.36,1.95-3.04,1.78-5.05l-.97-3.18.31-.49-.03-.35-.51-1.82.51-2.26-.22-2.55.71-1.23-.03-.35-.88-.74-.35.03c-1.31.11-2.12.69-2.42,1.72ZM818.79,161.41l.38.32.46-.04c2.24-.19,4.42-1.9,6.56-5.11l-.75-.63-.35.03c-2.31,1.21-4.23,1.88-5.77,2.01l-.52,3.43ZM820.43,166.87l1.17,5.5,4.32-2.7-3.33-3.45-.35.03-1.81.62ZM821.26,176.48l.88,2.14-.59,1.22.57,2.52.22,2.55,2.21,4.01c.07.77-.35,1.78-1.26,3.02l.38.32.04.46-.16,2.23.06.69c.58.42.96,1.63,1.13,3.63l.38.32.35-.03c.96-1.56,2.13-2.4,3.52-2.52l.78-4.5c-1.79-.08-2.73-.5-2.79-1.28l.25-1.19-1.48-.92-.29-3.36-.49-.31-.03-.35c.97-.47,1.44-.9,1.41-1.29l-.79-1.1c1.12-1.42,1.63-2.71,1.53-3.86l-2.01-1.69-.06-.69c2.03-2.58,3.03-4.15,2.98-4.69l-.5-.42-.35.03c-3.88,1.03-5.78,1.98-5.7,2.82l-.16,2.23ZM817.82,118.93l2.01,1.69-1.38,1.63-.35.03-.88-.74.32-.38-.03-.35-.48-1.48.32-.38.46-.04ZM828.98,201.12l.1,1.16.95,2.95.22,2.55.87.62.63-.75-.22-2.55-1.36-2.22.34-1.43-.04-.46-.87-.62-.63.75ZM827.85,154.22l.07.81c.54.89,1.47,1.27,2.78,1.16,3.26-3.7,5.81-5.63,7.66-5.79l.31-.49-.09-1.04-1.88-.19c-5.98,2.77-8.93,4.62-8.85,5.54ZM853.83,143l-1.19-.25c-1.84.31-4.92,1.94-9.26,4.88-2.32.2-4.15,1.87-5.52,5.02-1.39.12-2.29,1.44-2.69,3.96-2.7.23-3.99,1.08-3.86,2.55-1.21.42-1.79.85-1.75,1.32l.03.35.75.63c1.02-.79,2.73-1.28,5.12-1.49l.38.32.03.35c.05.54-.77,1-2.45,1.38l-1.2-.36c-1.8,1.71-2.63,3.3-2.51,4.76l1.59.91.35-.03c.33-.65,2.41-2.31,6.22-4.97l.46-.04,1.1.6c2.23-2.99,3.32-4.79,3.27-5.41l.81-.07,1.48.92c.24-.8,1.41-1.64,3.52-2.52-.03-.38.91-1.2,2.82-2.46-.13-1.47,1.05-2.31,3.52-2.52l.31-.49-.03-.35-.78-.98-.04-.46c2.28-1.52,3.64-2.88,4.08-4.08l-.03-.35-1.66-1.72.3-1.89-.49-.31-.35.03-2.33,2.77ZM830.16,141.78l.44,1.01c2.23-.35,3.31-.79,3.27-1.33l-.04-.46-1.88-.19-.69.06-1.09.91ZM836.14,158.4l.35-.03,1.13.95.07.81-.35.03-1.14-1.07-.06-.69ZM834.83,139.04l.39.43,1.5-.13c1.31-.11,2.12-.69,2.42-1.72l-1.14-1.07-.46.04-2.7,2.45ZM836.46,140.42l-.71,1.23.87.62.6-1.1-.76-.75ZM841.05,138.16l.38.32.81-.07c.93-.08,2.82-1.1,5.68-3.05l.38.32c.82-1.31,2.27-2.06,4.36-2.24l.32-.38c.69-.06,1.02-.32.98-.78l-.07-.81-2.2.19c-.65.6-2.45,1.38-5.4,2.33.05.54-.55.86-1.78.97.08.93-.73,1.46-2.43,1.61l-1.03,1.6ZM855.64,86.87c.8.24,1.25.98,1.36,2.22l-1.1.79-1.14-1.07-.06-.69.94-1.25ZM856.83,100.65l.49.31.35-.03,1.38-1.63-1.22-.59c-.54.05-.87.7-1,1.95ZM860.7,140.2l-.33,1.54.49.31.35-.03.6-1.1-.07-.81-1.04.09ZM861.87,149.77l1.14,1.07,1.38-1.63-1.13-.95-1.39,1.52ZM864.12,158.21c.07.77-.35,1.82-1.25,3.14l.03.35,1.63,1.38.84-2.4-.38-.32-.03-.35.19-1.88-1.04.09ZM865.84,174.16l-.07,3.27.69-.06c.75-.3,1.07-1.06.97-2.3l-1.25-.94-.35.03ZM857.27,62.47l.04.46,1.85-.16-.04-.46-.75-.63-.35.03-.75.76ZM862.48,101.21l-1.07-.26-.52,3.43c.77-.07,1.36.9,1.76,2.88l-.26,1.07.38.32.81-.07,2.7-2.45-.03-.35-.79-1.1-.06-.69,1.4-5.37-1.19-.25c-.46.04-1.35.97-2.67,2.8l-.46.04ZM859.78,82.08c.3.75,1.07,1.07,2.3.97l.69-.06c1.77-2.95,2.59-5.16,2.46-6.63l-.38-.32-1.5.13c-.46.04-.75,1.19-.87,3.46-.93.08-1.83.9-2.7,2.45ZM859.39,73.49l.13,1.5,1.92.65.62-.87c-.39-.98-1.29-1.41-2.68-1.29ZM864.89,94c.06.69-.91,1.13-2.92,1.3l-.54,1.91.38.32,3.3-.98.38.32.32-.38-.16-1.85-.75-.63ZM865.61,145.72l.29,3.36,1.26,1.06.35-.03c.57-1.45.94-3.11,1.09-4.99l.95-1.13-.39-.43-.35.03-3.2,2.14ZM867.97,173.16l3.14,1.25,1.29-1.28-3.43-1.92c-.62.05-.95.7-1,1.95ZM860.74,49.93c-.92,1.09-1.38,2.88-1.4,5.37-.75.3-1.07,1.07-.97,2.3l.03.35,1.63,1.38,1.06-1.26-.9-.97-.04-.46,1.69-2.01-1.13-.95-.07-.81c.85-.93,1.25-1.7,1.2-2.32l-1.1-.6ZM867.11,159.12l1.72,2.42.16,1.85,1.19.25-.23,2.7.09,1.04.88.74c.69-.06.86-2.21.49-6.46l-.94-2.83.31-.49-1.59-.91-2.07,1.69ZM859.96,72.04l.06.69,1.85-.16c.39-.03.73-.57,1.03-1.6l-.38-.32-1.5.13-1.06,1.26ZM867.31,151.99l-.43.39.03.35c.62-.05,1.11,1.15,1.48,3.6l1.5-.13.63-.75-.03-.35c-.05-.54-.42-.78-1.11-.72l-.06-.69.59-1.22-2.61-.48ZM863.1,103.02l.76.75-.32.38-.35.03-.1-1.16ZM860.86,68.93l.75.63.43-.39.35-.03,1.88.19.32-.38-.19-2.2-.79-1.1c-.04-.46.29-.72.98-.78l.32-.38-.07-.81-.75-.63-.35.03c-1.08.09-1.83,1.79-2.24,5.09l-.63.75ZM864.28,86.94l-.32.38.1,1.16.75.63.32-.38-.1-1.16-.75-.63ZM871.64,176.57l.07.81,1.62,1.26.92-1.48-.51-1.82.22-1.53-.38-.32-.35.03c-.46.04-1,1.06-1.6,3.05ZM872.69,180.56l.1,1.16,1.26,1.06,1.04-.09-.1-1.16-1.14-1.07-1.16.1ZM872.75,102.66l.19,2.2,1.13.95.46-.04.95-1.13-.03-.35c-.69.06-1.08-.41-1.17-1.42l-.49-.31-1.04.09ZM873.53,99.56l.1,1.16,1.16-.1-.04-.46-.75-.63-.46.04ZM879.09,133.02l-1.12,4.64,1.41,2.79.07.81-.72,1.11c.12,1.39.82,2.34,2.11,2.85.89-1.4,1.3-2.56,1.22-3.49l-1.82-3.57.78-4.5-1.23-.71-.69.06ZM875.25,101.98l.1,1.16.87.62c1.21-.41,1.8-.81,1.76-1.2l-.88-.74-1.85.16ZM877.51,124.17l.1,1.16c.77-.07,1.19.29,1.26,1.06l-.26,1.07.38.32.35-.03.75-.76-.22-2.55c-.05-.54-.45-.78-1.23-.71l-1.13.45ZM876.61,108.27l.6,2.86-.09,3.04.38.32,1.04-.09c.62-.05.95-.7,1-1.95-.54.05-1.18-1.49-1.91-4.62l-.35.03-.32.38-.35.03ZM880.47,153.07l1.1.6,1.16-.1-.54-2.17.22-1.53-1.22-.59c-.46.04-.7,1.31-.72,3.79ZM880.66,155.27l.1,1.16,1.04-.09.74-.88-.49-.31-1.39.12ZM888.32,179.22l-.42.5.03.35.87.62.32-.38-.03-.35-.76-.75ZM881.62,93.26l-.32.38.1,1.16.75.63.32-.38-.1-1.16-.75-.63ZM883.05,105.85l-.6,1.1.76.75.74-.88-.03-.35-.87-.62ZM889.78,188.07l-.32.38.04.46.75.63.32-.38-.03-.35-.76-.75ZM888.67,110.15l2.05,6.24-1.07,1.14.39,4.51c.85.78,1.36,2.22,1.54,4.3l-1.13.45.04.46.19,6.28.67,3.67c.77-.07,1.18.13,1.22.59l.04.46-1.04,1.49.2,2.32-.16,2.23.48,1.48-.19,1.88.63,3.21-.15,2.35.67,3.67.09,1.04-.06,3.39.54,2.17-.97.9-4.17.36-.63.75.1,1.16.75.63.43-.39.35-.03,2.61.48-.03-.35c-.03-1.24.3-1.89,1-1.95.71.1,1.4.89,2.07,2.39l-.22,1.53.8,5.18.19,2.2v4.08s1.75,4.05,1.75,4.05l.44,5.09.88.74.62-.87-.28-3.24-.55-2.29.32-.38-.03-.35-.54-2.17.19-1.88-.58-2.63.32-.38-.03-.35-.38-.32-.1-1.16.35-.03-.67-3.67-.48-5.56.32-.38-.38-.32-.03-.35.12-2.69-.64-3.33-.25-2.89-.79-1.1-.09-1.04.59-1.22-.32-3.7-.79-1.1-.41-4.75.59-1.22-.03-.35-.79-1.1-.22-2.55-.65-2.16.33-1.54-.56-1.12.43-.39-.03-.35-.56-1.12.21-2.93c-.17-2-.69-3.48-1.55-4.42.69-.99,1-1.87.94-2.65l-.49-.31-.35.03.2-7.13-.46.04c-.93.08-1.42-.26-1.49-1.04l.16-2.23-.03-.35-.81.07-.63.75ZM883.66,117l.09,1.04,1.16-.1-.03-.35-.87-.62-.35.03ZM882.54,99.95l.09,1.04.88.74.59-1.22-.06-.69-.76-.75-.74.88ZM887.56,148.73l.06.69,1.62,2.54.46-.04c.46-.04.69-1.42.69-4.14l-.39-.43-.35.03c-1.45.28-2.15.73-2.1,1.35ZM886.63,112.19c-.71.76-1.18,2.55-1.4,5.37.46-.04.74.44.82,1.45l.38.32.46-.04c.62-.05.9-2.18.85-6.37l-1.11-.72ZM884.64,106.76c.77-.07,1.23.79,1.39,2.56l.69-.06.87-3.46-.49-.31-1.39.12-1.07,1.14ZM886.18,124.59l.32,3.7,1.29,1.41-1.03,1.6.06.69.75.63,1.5-.13-.09-1.04-.51-1.82.19-5.96c-.44-1.52-.85-2.26-1.24-2.23l-.35.03c-.76.22-1.06,1.26-.9,3.11ZM887.11,135.36l1.27,10.74.38.32.46-.04.62-.87-.8-9.26-.78-.98.25-1.19-.81.07c-.46.04-.66.45-.59,1.22ZM889.53,159.41l.03.35.87.62.63-.75-.03-.35-.76-.75-.74.88ZM890.35,169.01l.03.35.88.74.62-.87-.38-.32-1.16.1ZM884.98,97.06l.32,3.7.76.75.35-.03.74-.88-.09-1.04-.59-1.47.36-1.2-1.85.16ZM885.32,92.95l-.22,1.53.38.32.35-.03.75-.76-.1-1.16-1.16.1ZM885.35,89.21l.06.69.88.74.94-1.25-.03-.35-.75-.63-.35.03-.75.76ZM883.61,37.82c.29,1.53.7,2.27,1.24,2.23l.35-.03,1.06-1.26-.03-.35-1.63-1.38-.35.03-.63.75Z"/></svg>