<?xml version="1.0" encoding="UTF-8"?><svg id="Capa_1" xmlns="http://www.w3.org/2000/svg" viewBox="0 0 461.62 483.64"><defs><style>.cls-1{fill:#53b32d;}.cls-2{fill:#0b0a08;}.cls-3{fill:#de321b;}.cls-4{fill:#9346d2;}.cls-5{fill:#fefefe;}</style></defs><path class="cls-2" d="M72.9,265.37c7.56-2.06,15.35-4.02,23.29-3.53,2.41.15,12.32,2.69,13.29,2.09l11.56-25.67c.5-2.71-3.99-4.66-4.83-8.23-.59-2.51.79-7.32.24-8.21-.21-.34-5.77-2.77-7.18-3.73-11.26-7.69-24.83-29.62-2.16-31.76-2.23-5.98-7.16-13.01-5.88-19.74.69-3.65,5.98-2.83,6.54-3.6.79-1.08.45-4.98.79-6.76,3.53-18.71,26.54-20.93,41.32-14.72,1.19.5,2.84,2.15,3.84,1.53,12.5-26.24,30.39-49.65,49.82-71.12,11.87-13.12,45.48-47.44,62.51-49.55,16.69-2.06,24.73,7.05,32.26,20.26,13.89,24.39,22.21,48.07,43.54,67.94,7.12,6.64,16.12,11.37,22.4,18.88,14.6,17.47,15.09,40.09,8.27,61.02,3.71-.08,7.16-.8,10.94-.61,4.9.25,21.16,3.77,21.56,9.75.21,3.2-1.9,3.4-2.75,5.02-.91,1.75,4.9,4.97,6.24,6.18,7.09,6.4,16.1,17.32,17.09,27.14.86,8.55-1.05,13.92-10.61,10.91-.04,11.73-3.16,27.53-14.34,33.73-7.92,4.39-8.34-1.34-12.5-1.35-1.8,0-4.04,2.61-6.3,3.19-8.21,2.13-18.82-7.56-23.03-13.91-1.28-1.93-4.44-9.22-5.42-9.91-1.24-.88-3.49-.45-5.22-1.27-4.57-2.16-7.55-13.45-7.51-18.15,0-.43.48-2.97.59-4.13.14-1.6.53-3.12.59-4.72-2.42-.06-1.7,2.59-1.77,4.13-.07,1.49.21,3.34,0,4.72-1.04,6.71-10.67,9.66-16.51,8.85l5.31,26.54c5.18-1.02,9.77-3.3,15.11-4.06,4.24-.61,8.39-.58,12.61-.06l-18.28,7.07c7.42.73,24.82.04,30.39,5.3,2.21,2.09,2.65,5.96.54,8.24-1.51,1.63-5.06,1.22-4.4,3.28.14.44,6.35,4.7,7.37,5.62,3.34,3.04,6.11,6.55,8.46,10.42,1.56,2.58,5.53,9.43,4.72,12.15-1.27,4.23-9.46,3.46-9.89,4.9,3.45,9.63,5.22,21.47,1.91,31.37-1.14,3.4-3.15,8.09-7.41,7.09-1.35-.32-2.3-2.08-3.39-1.39-3.2,7.73-6.73,16.08-13.94,20.88-6.68,4.44-5.69,3.86-11.1,9.54-21.25,22.33-54.1,29.26-81.12,42.74-12.12,6.04-22.5,14.37-33.78,20.48-4.92,2.67-7.08,1.21-11.83-.8-24.05-10.14-50.78-23.65-74.31-35.39-18.57-9.26-33.48-16.97-46.63-33.59-.7-.89-3.07-5.06-3.31-5.25-1.05-.86-1.97,2.63-3.22,3.54-3.11,2.28-7.26-.55-10.05-2.35-9.11-5.88-14.31-16.87-16.8-27.14-.99.49-1.13,1.9-2.04,2.96-7.88,9.11-12.69-4.17-13.21-11-.29-3.84.71-7.06.51-10.84-10.08,3.11-10.98-6.17-9.16-13.59,1.45-5.89,6.83-14.1,10.91-18.58,1.21-1.32,6.86-5.93,7.09-6.48.46-1.11-.47-.75-.87-.88-4.58-1.46-6.77-3.52-5.34-8.86,1.19-4.42,11.62-11.96,15.69-14.38,8.95-5.33,19.13-8.39,29.44-9.79l-9.71-1.79c-3.81-.25-7.23.17-10.93.61v-1.18ZM357.19,215.82c.76.14,1.01,0,1.43-.62.86-1.24,1.67-9.43,2.27-11.89,1.74-7.14,4.8-13.95,5.16-21.38.89-18.56-5.43-40.44-19.8-52.79-4.72-4.06-10.5-6.72-15.3-10.65-19.68-16.13-33.26-53.37-47.25-74.84-5.39-8.27-9.22-11.4-19.27-7.58-15.07,5.73-45.47,37.25-57.36,49.98-17.59,18.85-33.19,39.69-47.4,61.18-.27.79.05,1.09.52,1.63.43.49,10.41,6.55,11.04,6.69,2.16.48,7.86-.72,11.06-.47,6.88.53,14.87,3.59,19.48,8.83,2.01,2.29,3.14,5.12,4.79,7.63,5.58-1,9.95-3.34,15.83-2.89,12.07.92,24.58,7.58,31.34,17.64,10.72-8.2,22.53-10.11,34.61-3.38,1.84,1.02,5.06,4.34,6.73,3.63.77-.33,6.69-8.81,6.7-9.93.02-1.82-5.37-11.95-6.24-15.63-1.21-5.1-1.52-10.71-1.47-15.93-7.15-.64-12.42,3.22-19.29-.47-10.81-5.81-17.56-27.93-18.99-39.41-.17-1.36-.5-2.35,1.11-1.99,2.99,5.92,5.83,11.79,9.44,17.4,2.29,3.57,10.2,15.57,13.9,16.17,5.25.85,12.83-2.24,19.45-1.75,22.6,1.67,41.22,33.41,46.58,53.1,1.75,6.45,2.1,14.29,5.39,19.98,1.54,2.66,4.33,4.86,5.53,7.75ZM150.75,148c-9.03-1.32-18.4-5.5-26.95-.12-8.71,5.49-9.82,15.97-6.53,25.04.53,1.46,5.63,11.2,5.16,11.64-.76.72-1.74-.45-2.26-.97-3.81-3.78-6.76-8.65-10.41-12.6-.7-.76-1.48-1.91-2.66-1.76,1.11,8.48,6.36,15.29,12.37,20.94.68.64,8.22,5.78,7.08,6.77-8.11-.69-32.83-9.47-18.85,7.36,3.46,4.17,10.1,8.91,14.78,11.76,4.03,2.46,12.61,8.68,15.33,1.87,1.55-3.9-.93-6.28-1.24-10.05-.15-1.77-.44-5.73,1.2-6.81,2.69,15.87,15.21,23.68,30.39,25.35,4.81-.67,10.56,1.52,15.2.47,2.71-.61,3.97-3.91,5.71-5.5,2.19-2.01,5.85-3.83,8.87-3.81-2,7.4-12.86,17.13-3.5,23.85,8.96,6.42,30.02,3.33,40.08.06,4.29-1.39,3.07-3.66,4.09-7.12.19-.65.23-1.82,1.19-.86.23.23,1.7,4.72,2.48,6.08,5.01,8.64,15.04,14.69,25.28,12.53,7.19-1.51,6.68-8.75,5.87-14.48,1.02-.27,1.18.42,1.77.88,5.12,3.92,7.6,8.24,14.34,11.02,3.25,1.34,14.78,3.89,16.52-.24,2.6-6.16-4.16-16.74-6.68-22.28.74-.75,6.22,5.45,7.07,6.2,6.54,5.81,11.42,9.83,20.89,8.49,4.45-.63,5-2.73,3.75-6.6-2.2-6.83-8.5-11.07-12.84-16.35,1.01-.2,1.72.32,2.58.66,3.26,1.31,11.87,7.31,14.28,7.59,3.53.41,5.89-4.33,6.15-7.37,1.23-14.65-21.06-14.17-30.67-12.68-.31-1.31,2.05-2.25,2.92-2.68,3.32-1.63,6.2-1.51,8.53-5.03,2.41-3.63,3.29-11.68.13-15.09-6.09-6.56-13.59-1.1-18.95,3.35-4.47,3.71-5.82,4.64-5.03,11.19-2.62-.22-4.01-2.89-5.95-4.36-14.3-10.84-27.98-8.69-42.64.2-7.15-14.36-23.65-19.77-38.98-18.24-4.31.43-8.06,2.81-12.09,4.12.12-2.15,2.55-3.59,1.48-5.88-.59-1.26-4.93-5.2-6.25-6.16-10.26-7.49-22.1-6.65-34.16-5.66,1.29-1.51,3.08-2.64,4.55-3.96.39-.35,1.14.03.75-1.34-8.3-4.27-16.25-1.68-24.77-.01-1.9-1.75,8.83-7.14,9.63-7.77.65-.51,1.23-.59.98-1.66ZM344.19,204.03c.85-1.12-6.37-18.99-7.56-21.63-6.52-14.48-16.35-30.73-31.36-37.34-.25,3.62.19,7.09.86,10.63.46,2.42,4.2,15.19,5.33,16.5.79.91,8.52,1.46,10.78,2.19,11.72,3.77,9.14,15.37,7.8,24.93,5.11.11,9.77,2.42,14.15,4.72ZM391.97,199.32c-.26-.24-6.04-1.62-6.85-1.71-4.03-.48-13.6.13-16.17,3.75-2.32,3.27-2.71,13.72-2.36,17.73.36,4.1,2.17,7.7,3.56,11.48-6.89-1.36-13.25-6.8-18.02-11.78-.64-.67-1.08-2.93-2.06-1.43-1.78,2.7-3.06,13.06-2.93,16.49.05,1.29,1.38,10,1.82,10.28,1.99,1.26,1.74-1.5,2.16-2.8l3.11-7.79c1.86,10.34,4.67,20.39,10.73,29.08,1.82,2.61,11.1,13.08,13.77,13.4,2.48.31,2.82-4.81,3.14-6.89,1.05-6.68.49-13.56,1.26-20.27,1.81-.32,1.95.49,2.68,1.74,2.94,5.02,5.28,22.13,9.69,24.54,1.35.74,3.27-2.6,4.03-3.68,9.99-14.31,6.25-29.85-.78-44.41,7.86,2.95,11.41,12.06,19.17,14.73.4-3.91-1.63-7.65-3.43-11.01-4.89-9.12-13.39-17.19-22.89-21.34-1.74-.76-11.58-3.76-11.91-4.3-2.92-4.78,9.15-4.35,11.41-4.63.81-.1,1.79-.34.88-1.17ZM183.12,234.76c-3.19-.97-6.2.08-9.66-.07-7.53-.33-14.99-2.56-21.54-6.17-1.67-.92-5.97-4.68-7.24-4.37-1.88.46-12.88,15.98-14.45,18.64-5.78,9.82-8.48,21.77-13.57,30.66-3.82,6.67-10.2,4.32-16.33,4.9-11.77,1.11-24.06,3.03-33.33,10.91l16.51-2.36c-10.57,9.66-22.39,18.36-30.07,30.68,2.15.43,4.14-2.58,5.37-3.45,2.86-2.03,5.88-3.99,8.78-5.99.48-.33,1.15-1.6,1.77-.58-6.35,11.89-15.87,22.69-15.87,37.09,0,.49.48,4.45,1.7,3.31.74-.69.91-4.11,1.23-4.85.23-.53.89-.51,1.08-.92,3.79-8.18,7.73-16.65,14.8-22.53-6.15,18.4-4.93,39.7,7.97,54.84-2.48-11.78-1.74-24.12,0-35.96,4.8,12.59,7.95,25.08,15.39,36.51,11.61,17.86,25.2,25.12,43.27,34.61,25.15,13.19,52.26,26.25,78.66,37.5,1.82.78,4.72,2.31,6.59,2.31,2.91,0,8.83-5.3,11.79-7.15,23.15-14.45,47.59-22.2,71.78-33.79,12.07-5.78,19.64-12.35,28.18-22.54,6.99-8.34,12.89-17.58,18.6-26.82.67,4.99-.95,10.12-1.41,15.11-.06.66-.54,2.12.51,1.98,4.25-6.75,7.23-13.27,9.4-20.98,1.02-3.61,2.09-12.6,3.28-15,.12-.25.7-.73.89-.58,1.03,2.99,1.72,6.24,2.94,9.16.14.33.63,1.97,1.2,1.16-.02-14.86-5.8-30.72-15.93-41.57,5.37.23,9.9,4.48,15.32,5.01-3.86-6.04-9.56-11.18-16.35-13.73-3.74-1.4-7.86-1.98-11.74-3.02-.8-.21-1.65.4-1.39-.95l17.09-6.78c-9.15-2.98-18.67-2.13-27.84.16-3.99,1-12.93,6.05-14-.49-1.57-9.68-.43-18.38-3.28-28.57-2-7.14-3.36-3.28-8.42-1.95-5.91,1.55-10.63-.13-16.03-2.5-1.92-.84-7.25-4.41-8.59-4.39-1.8.03-2.06,2.46-2.97,3.49-9.28,10.59-17.99,1.79-29.16,4.75.11-.85,1.61-1.44,1.73-2.14.15-.91-7.27-7.74-8.52-9.05-.92-.97-1.41-2.85-2.91-2.93-3.56,1.02-6.5,2.91-10.05,4.11-15.33,5.18-43.96,7.53-45.19-14.69Z"/><path class="cls-4" d="M341.25,237.06c-.1,1.16-.59,3.7-.59,4.13h-.59c.21-1.38-.07-3.22,0-4.72l1.18.59Z"/><path class="cls-3" d="M357.19,215.82c-1.2-2.89-3.99-5.08-5.53-7.75-3.28-5.68-3.63-13.53-5.39-19.98-5.36-19.69-23.98-51.42-46.58-53.1-6.62-.49-14.2,2.61-19.45,1.75-3.71-.6-11.61-12.6-13.9-16.17-3.6-5.61-6.44-11.48-9.44-17.4-1.61-.36-1.28.63-1.11,1.99,1.42,11.48,8.17,33.6,18.99,39.41,6.87,3.69,12.14-.18,19.29.47-.05,5.22.26,10.83,1.47,15.93.87,3.68,6.27,13.81,6.24,15.63-.01,1.11-5.93,9.6-6.7,9.93-1.67.71-4.9-2.6-6.73-3.63-12.08-6.73-23.89-4.82-34.61,3.38-6.76-10.06-19.27-16.72-31.34-17.64-5.88-.45-10.26,1.89-15.83,2.89-1.65-2.51-2.78-5.34-4.79-7.63-4.61-5.25-12.6-8.3-19.48-8.83-3.2-.25-8.9.95-11.06.47-.63-.14-10.62-6.2-11.04-6.69-.47-.54-.79-.83-.52-1.63,14.21-21.49,29.8-42.34,47.4-61.18,11.89-12.73,42.29-44.25,57.36-49.98,10.05-3.82,13.88-.69,19.27,7.58,13.99,21.47,27.57,58.71,47.25,74.84,4.8,3.93,10.58,6.59,15.3,10.65,14.37,12.35,20.69,34.23,19.8,52.79-.36,7.43-3.42,14.25-5.16,21.38-.6,2.46-1.4,10.65-2.27,11.89-.43.61-.68.76-1.43.62Z"/><path class="cls-5" d="M150.75,148c.24,1.08-.33,1.15-.98,1.66-.8.62-11.53,6.01-9.63,7.77,8.52-1.67,16.46-4.25,24.77.01.39,1.37-.37.99-.75,1.34-1.48,1.32-3.27,2.44-4.55,3.96,12.05-.99,23.9-1.83,34.16,5.66,1.32.96,5.66,4.9,6.25,6.16,1.07,2.29-1.36,3.72-1.48,5.88,4.03-1.31,7.78-3.69,12.09-4.12,15.33-1.52,31.83,3.89,38.98,18.24,14.66-8.89,28.34-11.04,42.64-.2,1.94,1.47,3.33,4.14,5.95,4.36-.79-6.55.56-7.48,5.03-11.19,5.36-4.45,12.86-9.91,18.95-3.35,3.16,3.41,2.28,11.45-.13,15.09-2.33,3.52-5.21,3.4-8.53,5.03-.87.43-3.23,1.36-2.92,2.68,9.61-1.49,31.91-1.97,30.67,12.68-.26,3.04-2.62,7.78-6.15,7.37-2.42-.28-11.02-6.27-14.28-7.59-.85-.34-1.57-.86-2.58-.66,4.34,5.27,10.63,9.52,12.84,16.35,1.25,3.86.7,5.96-3.75,6.6-9.47,1.34-14.35-2.68-20.89-8.49-.84-.75-6.32-6.95-7.07-6.2,2.53,5.54,9.28,16.12,6.68,22.28-1.74,4.13-13.27,1.58-16.52.24-6.74-2.78-9.22-7.1-14.34-11.02-.59-.45-.75-1.14-1.77-.88.81,5.73,1.33,12.97-5.87,14.48-10.24,2.16-20.27-3.9-25.28-12.53-.78-1.35-2.25-5.84-2.48-6.08-.96-.97-1,.21-1.19.86-1.02,3.46.2,5.73-4.09,7.12-10.06,3.27-31.12,6.37-40.08-.06-9.36-6.71,1.5-16.45,3.5-23.85-3.01-.02-6.67,1.8-8.87,3.81-1.73,1.59-3,4.89-5.71,5.5-4.64,1.05-10.39-1.15-15.2-.47-15.18-1.67-27.7-9.48-30.39-25.35-1.64,1.07-1.34,5.04-1.2,6.81.32,3.77,2.8,6.14,1.24,10.05-2.71,6.82-11.3.6-15.33-1.87-4.67-2.86-11.32-7.6-14.78-11.76-13.98-16.83,10.74-8.05,18.85-7.36,1.14-.99-6.4-6.13-7.08-6.77-6.01-5.65-11.27-12.47-12.37-20.94,1.18-.15,1.95,1,2.66,1.76,3.65,3.94,6.59,8.81,10.41,12.6.52.52,1.5,1.69,2.26.97.46-.44-4.63-10.18-5.16-11.64-3.3-9.07-2.19-19.55,6.53-25.04,8.54-5.38,17.91-1.2,26.95.12Z"/><path class="cls-5" d="M391.97,199.32c.91.83-.07,1.07-.88,1.17-2.26.28-14.33-.14-11.41,4.63.33.54,10.17,3.54,11.91,4.3,9.5,4.15,18,12.23,22.89,21.34,1.8,3.36,3.84,7.09,3.43,11.01-7.77-2.67-11.31-11.78-19.17-14.73,7.03,14.56,10.77,30.1.78,44.41-.76,1.09-2.68,4.43-4.03,3.68-4.41-2.42-6.75-19.52-9.69-24.54-.73-1.25-.87-2.06-2.68-1.74-.77,6.71-.21,13.58-1.26,20.27-.33,2.08-.66,7.19-3.14,6.89-2.67-.33-11.95-10.79-13.77-13.4-6.07-8.69-8.87-18.74-10.73-29.08l-3.11,7.79c-.42,1.3-.17,4.06-2.16,2.8-.44-.28-1.77-8.99-1.82-10.28-.13-3.43,1.15-13.79,2.93-16.49.99-1.5,1.42.76,2.06,1.43,4.77,4.98,11.13,10.42,18.02,11.78-1.39-3.78-3.2-7.37-3.56-11.48-.35-4.01.04-14.46,2.36-17.73,2.57-3.62,12.14-4.24,16.17-3.75.8.1,6.59,1.47,6.85,1.71Z"/><path class="cls-1" d="M183.12,234.76c1.23,22.22,29.87,19.88,45.19,14.69,3.54-1.2,6.49-3.1,10.05-4.11,1.5.08,1.99,1.96,2.91,2.93,1.24,1.31,8.67,8.14,8.52,9.05-.12.7-1.62,1.29-1.73,2.14,11.17-2.96,19.87,5.84,29.16-4.75.91-1.03,1.17-3.46,2.97-3.49,1.34-.02,6.67,3.55,8.59,4.39,5.4,2.37,10.11,4.05,16.03,2.5,5.06-1.33,6.42-5.19,8.42,1.95,2.85,10.19,1.72,18.89,3.28,28.57,1.06,6.55,10,1.49,14,.49,9.18-2.29,18.69-3.14,27.84-.16l-17.09,6.78c-.26,1.35.59.73,1.39.95,3.87,1.04,8,1.61,11.74,3.02,6.79,2.55,12.49,7.68,16.35,13.73-5.42-.54-9.95-4.78-15.32-5.01,10.12,10.86,15.9,26.71,15.93,41.57-.57.81-1.07-.83-1.2-1.16-1.22-2.92-1.91-6.17-2.94-9.16-.19-.15-.76.33-.89.58-1.2,2.4-2.27,11.39-3.28,15-2.17,7.71-5.15,14.23-9.4,20.98-1.06.13-.57-1.32-.51-1.98.46-4.99,2.07-10.12,1.41-15.11-5.71,9.24-11.61,18.48-18.6,26.82-8.54,10.19-16.11,16.75-28.18,22.54-24.19,11.59-48.63,19.34-71.78,33.79-2.95,1.84-8.87,7.15-11.79,7.15-1.87,0-4.77-1.53-6.59-2.31-26.4-11.26-53.51-24.31-78.66-37.5-18.07-9.48-31.66-16.75-43.27-34.61-7.43-11.43-10.59-23.93-15.39-36.51-1.73,11.84-2.47,24.18,0,35.96-12.9-15.14-14.13-36.44-7.97-54.84-7.07,5.89-11,14.35-14.8,22.53-.19.41-.85.4-1.08.92-.32.74-.49,4.16-1.23,4.85-1.23,1.14-1.7-2.82-1.7-3.31,0-14.39,9.52-25.19,15.87-37.09-.62-1.01-1.3.26-1.77.58-2.9,1.99-5.93,3.95-8.78,5.99-1.23.87-3.22,3.88-5.37,3.45,7.68-12.32,19.51-21.02,30.07-30.68l-16.51,2.36c9.27-7.88,21.56-9.8,33.33-10.91,6.13-.58,12.52,1.77,16.33-4.9,5.09-8.89,7.79-20.85,13.57-30.66,1.57-2.66,12.57-18.17,14.45-18.64,1.27-.31,5.57,3.45,7.24,4.37,6.55,3.62,14.02,5.84,21.54,6.17,3.46.15,6.47-.89,9.66.07ZM200.29,267.14c-2.9-7.27-8.43-13.8-15.92-16.51l15.92,16.51ZM246.29,262.42c-4.5-.4-10.63.45-12.38,5.3,3.7-1.22,7.48-2.49,11.08-3.98.88-.36,1.6.36,1.3-1.32ZM238.62,268.91c-9.7,2.3-17.78,9.81-18.88,20.05l-14.93-11.91c-.56-.74-1.48-.07-1.57.42-.28,1.44,16.54,14.98,17.64,23.04.74,5.41-1.24,11.38-1.72,16.76-1.02.26-1.18-.42-1.77-.88-9.43-7.26-24.55-26.16-35.83-27.87-1.23-.19-2.45-.21-3.68-.15.83,1.99,5.22,4.64,5.89,6.19.31.73-.12,1.09-.87.87-2.39-.71-9.04-4.71-11.47-6.23-4.53-2.84-8.59-6.34-12.74-9.68-.98-.14-.95-.03-.9.89.11,1.93,1.79,4.51,2.26,6.6.2.88.48,1.58-.76,1.35l-15.94-14.15c-.38,2.57,1.35,5.23,2.07,7.66-.79.77-9.17-6.02-10.33-6.48-.8-.31-1.03.12-.89.89.19.98,10,13.38,11.42,14.83,3.31,3.37,7.35,5.44,10.92,8.25-1.17,1.85-3.99,10.39-5.22,11.17-.78.49-4.62-1.18-5.9-.05,4.2,2.82,9.43,4.74,13.53,7.7,7.81,5.63,12.99,13.72,19.48,20.63,3.84,4.08,9.34,10.18,15.35,9.12-.63-2.05-8.52-7.31-8.25-8.54.15-.69,7.35-2.38,8.83-2.97,7.94-3.13,11.26-9.02,12.44-17.34,5.97.66,10.32,2.89,15.75-1.07,1.21-.88,1.08-2.1,2.19-1.92,4.02,7.25,9.4,2.79,15.64,2.35-.75,5.92,1.59,12.1,6.21,15.91.87.72,4.51,2.43,4.41,2.67-1.95,4.42-5.35-1.49-7.07-2.95-3.68-3.13-6.45-2.66-10.26-4.49-4.03-1.94-6.18-5.51-11.72-4.51-3.88.7-5.58,4.52-7.34,5.05-1.82.54-4.89,0-7.28.39-6.66,1.11-13.41,7.88-11.49,15.08.73,2.73,3.95,3.53,2.08,7.05,5.2-1.62,8.97-4.04,14.78-2.69,1.87.44,2.99,1.93,4.54,2.54,7.78,3.11,10.23-2.57,16.35-2.83,2.72-.12,3.63,1.02,5.35,1.18,4.07.39,8.03-.49,12.05,1.21,0-2.71-4.09-3.97-2.3-6.7,1.04-1.58,10.32-7.11,12.92-9.51,4.09-3.78,7.1-9.4,10.92-12.68,2.91-2.5,9.76-5.57,13.45-7.19,5.24-2.31,10.8-4.32,16.32-5.8l-4.42-1.17-12.71,2.11c-.78-3.28-1.04-6.13-2.6-9.21-1.81-3.57-4.99-5.73-7.4-8.82l5.9.58c1.19-1-4.93-3.62-.32-4.15,2.63-.3,4.6.09,6.77,1.54s3.05,4.18,5.35,4.97c.62-2.02-3.46-6.88-1.78-7.98,2.38-1.55,10.31.98,12.7,2.67,1.21-1.79-2.2-4.71-3.65-5.79-1.76-1.31-3.95-2.5-6.09-3.06,1.46-2.74,6.21.4,7.66-2.34-13.38-7.07-24.99,2.52-37.15,7.07-.26-1.11.63-1.4,1.18-2.06,2.12-2.57,5.22-4.8,7.38-7.37.39-.47,1.55-1.18.59-1.77-7.72,2.68-13.16,6.09-18.23,12.44-6.83,8.54-11.93,19.93-21.61,26.16-3.54,2.27-5.53-1.03-7.07-4.08-1.59-3.15-3.37-16.48-2.88-20.02.79-5.66,6.82-14.05,11.13-17.77,1.23-1.06,3.67-1.1,3.56-3.21ZM115.36,288.37h10.62c.25-1.54-.23-1.06-1.28-1.35-2.77-.77-5-.51-7.69.35-.63.2-1.78.14-1.65,1ZM139.99,302.05c-6.26-5.07-12.09-11.54-20.83-11.92-1.19-.05-2.38-.2-3.21.9,3.68-.4,22.78,14.27,24.17,12.68.08-.1.08-1.31-.13-1.65ZM137.18,329.06c3.26-13.78-9.23-29.44-23.27-30.1-6.65-.31-17.69,3.17-22.52,7.9-.82.8-3.48,3.86-.62,3.21,3.09-.7,6.02-2.58,9.26-2.83.59.47-8.88,10.47-7.37,12.98,4.84-3.95,8.44-11.22,15.62-10.62-.06,1.5-1.44,2.1-2.07,3.53-5.79,13.04-1.82,38.13,6.3,49.75,28.94,41.37,81.45,52.91,129.38,50.55,29.02-1.43,68.28-18.41,85.68-42.3,11.18-15.34,20.87-39.24,10.15-57.11,6.65,1.54,10.48,7.23,15.32,11.22.47.39,1.19,1.56,1.78.58-2.91-9.26-12.7-19.92-22.72-20.93-7.94-.8-12.82,2.86-20.34,2.95.54,1.06,2.1,1.19,1.76,2.94l-10.02.6c-.08,1.35-.21,1.05.87,1.18,2,.24,4.16-.36,6.19.62l-2.34,8.22c3.45.11,4.58-3.3,7.95-4.73,7.44-3.16,18.91,1.04,19.46,9.73,1.46,23.14-18.11,50.45-36.65,62.71-22.53,14.9-52.14,18.6-78.63,16.62.22-1.61-1.27-12.56-1.78-12.97-.07-.05-1.6-.07-1.73.02-1.18.76-1.44,12.67-2.78,12.98-25.94.49-51.01-7.67-71.5-23.38-19.74-15.13-40.34-37.97-31.34-64.84,5.39-16.09,13.82-8.34,20.32,1.54l5.65,9.97ZM147.2,307.84c-4.62-2.79-8.9-3.08-14.15-2.36l.88,1.16,13.26,1.2ZM248.65,416.95c-9.87.37-19.93,3.02-29.81,2.38-9.07-.59-17.79-4.26-26.81-4.74-.35,1.53.45,1.03,1.11,1.52,16.07,11.87,36.98,14.3,54.14,2.72.76-.51,1.61-.67,1.36-1.88Z"/><path class="cls-2" d="M238.62,268.91c.11,2.12-2.34,2.16-3.56,3.21-4.31,3.72-10.33,12.11-11.13,17.77-.5,3.54,1.29,16.87,2.88,20.02,1.54,3.05,3.53,6.35,7.07,4.08,9.68-6.22,14.78-17.61,21.61-26.16,5.07-6.35,10.51-9.76,18.23-12.44.96.59-.2,1.3-.59,1.77-2.16,2.56-5.25,4.8-7.38,7.37-.55.66-1.43.95-1.18,2.06,12.17-4.55,23.77-14.14,37.15-7.07-1.46,2.74-6.21-.4-7.66,2.34,2.14.56,4.33,1.75,6.09,3.06,1.45,1.08,4.86,4,3.65,5.79-2.4-1.69-10.32-4.22-12.7-2.67-1.67,1.09,2.4,5.95,1.78,7.98-2.3-.79-3.26-3.59-5.35-4.97s-4.15-1.85-6.77-1.54c-4.61.53,1.51,3.15.32,4.15l-5.9-.58c2.4,3.09,5.58,5.25,7.4,8.82,1.57,3.09,1.82,5.93,2.6,9.21l12.71-2.11,4.42,1.17c-5.51,1.49-11.08,3.5-16.32,5.8-3.69,1.62-10.54,4.69-13.45,7.19-3.82,3.28-6.82,8.9-10.92,12.68-2.6,2.41-11.88,7.93-12.92,9.51-1.8,2.73,2.29,3.99,2.3,6.7-4.02-1.7-7.99-.82-12.05-1.21-1.72-.16-2.63-1.3-5.35-1.18-6.12.26-8.57,5.94-16.35,2.83-1.54-.62-2.66-2.11-4.54-2.54-5.81-1.35-9.58,1.07-14.78,2.69,1.87-3.52-1.36-4.32-2.08-7.05-1.91-7.2,4.84-13.97,11.49-15.08,2.39-.4,5.46.15,7.28-.39,1.76-.53,3.47-4.35,7.34-5.05,5.54-1,7.7,2.57,11.72,4.51,3.81,1.83,6.57,1.36,10.26,4.49,1.72,1.46,5.12,7.37,7.07,2.95.1-.24-3.54-1.95-4.41-2.67-4.62-3.81-6.96-9.99-6.21-15.91-6.24.44-11.61,4.9-15.64-2.35-1.11-.18-.98,1.04-2.19,1.92-5.43,3.96-9.78,1.73-15.75,1.07-1.18,8.32-4.5,14.21-12.44,17.34-1.48.58-8.68,2.28-8.83,2.97-.27,1.23,7.62,6.49,8.25,8.54-6.01,1.06-11.51-5.04-15.35-9.12-6.49-6.9-11.68-15-19.48-20.63-4.1-2.96-9.32-4.88-13.53-7.7,1.28-1.13,5.12.54,5.9.05,1.23-.78,4.05-9.32,5.22-11.17-3.57-2.81-7.6-4.88-10.92-8.25-1.42-1.44-11.23-13.84-11.42-14.83-.15-.77.09-1.2.89-.89,1.16.45,9.54,7.25,10.33,6.48-.72-2.43-2.45-5.08-2.07-7.66l15.94,14.15c1.24.23.96-.47.76-1.35-.47-2.09-2.15-4.66-2.26-6.6-.05-.92-.08-1.03.9-.89,4.15,3.34,8.2,6.84,12.74,9.68,2.43,1.52,9.08,5.52,11.47,6.23.75.22,1.18-.14.87-.87-.67-1.56-5.06-4.21-5.89-6.19,1.24-.07,2.45-.04,3.68.15,11.28,1.7,26.4,20.61,35.83,27.87.59.45.75,1.14,1.77.88.48-5.37,2.46-11.35,1.72-16.76-1.1-8.06-17.92-21.6-17.64-23.04.1-.48,1.01-1.15,1.57-.42l14.93,11.91c1.09-10.24,9.17-17.75,18.88-20.05ZM251.01,313.14c-9.26-.05-4.68,13.85-.3,17.11,8.6,6.41,14-6.65,19.48-11.2,4.32-3.59,10.19-3.97,9.6-11.34-.37-4.58-6.7-13.61-11.71-10.23-3.42,2.31.41,5.43.95,9.15,1.87,12.82-16.65,23.49-18.03,6.51ZM176.11,304.89c-5.83-1.47-14.72-6.73-16.85,2.31-1.81,7.66,3.89,7.09,8.6,10.95,3.52,2.89,10.75,14.07,14,14.9,8.53,2.18,18.84-4.99,19.56-13.79.31-3.8-1.49-8.17-5.81-7.84-2.61,20.2-28.4,9.79-19.5-6.52ZM231.3,334.03c-4.44-3.38-7.78-6.41-13.28-2.28-1.3.97-2.36,3.44-3.4,3.73-1.17.33-2.3-.53-3.44-.54-2.92-.02-7.5,4.82-9.55,6.55-.94.79-2.9-.14-1.81,3.07,1.76,5.18,8.85.97,13.11,1.65,2.75.44,5.3,3.33,8.9,3.53,6.03.33,9.25-6.53,15.82-4.66,2.1.6-1.75,3.9,2.75,2.58,7.72-2.25,1.23-10.18-3.98-11.39-.75-.18-1.56.52-2.49.17-.88-.33-1.95-1.89-2.63-2.41Z"/><path class="cls-2" d="M137.18,329.06l-5.65-9.97c-6.49-9.89-14.93-17.63-20.32-1.54-9,26.87,11.61,49.7,31.34,64.84,20.49,15.71,45.57,23.87,71.5,23.38,1.34-.31,1.6-12.22,2.78-12.98.13-.08,1.66-.07,1.73-.02.51.41,2,11.36,1.78,12.97,26.48,1.98,56.09-1.72,78.63-16.62,18.54-12.26,38.11-39.58,36.65-62.71-.55-8.7-12.02-12.89-19.46-9.73-3.36,1.43-4.5,4.84-7.95,4.73l2.34-8.22c-2.03-.98-4.19-.38-6.19-.62-1.08-.13-.95.17-.87-1.18l10.02-.6c.34-1.75-1.23-1.88-1.76-2.94,7.52-.09,12.4-3.75,20.34-2.95,10.02,1.01,19.81,11.66,22.72,20.93-.59.98-1.31-.19-1.78-.58-4.84-3.99-8.67-9.68-15.32-11.22,10.72,17.87,1.03,41.76-10.15,57.11-17.41,23.89-56.66,40.87-85.68,42.3-47.93,2.36-100.45-9.18-129.38-50.55-8.13-11.62-12.1-36.71-6.3-49.75.64-1.43,2.01-2.03,2.07-3.53-7.19-.6-10.78,6.66-15.62,10.62-1.52-2.51,7.96-12.51,7.37-12.98-3.24.24-6.17,2.13-9.26,2.83-2.85.65-.2-2.41.62-3.21,4.83-4.73,15.87-8.21,22.52-7.9,14.03.66,26.52,16.32,23.27,30.1Z"/><path class="cls-2" d="M248.65,416.95c.25,1.21-.6,1.37-1.36,1.88-17.16,11.58-38.08,9.15-54.14-2.72-.66-.49-1.47,0-1.11-1.52,9.02.48,17.73,4.15,26.81,4.74,9.88.64,19.94-2.01,29.81-2.38Z"/><path class="cls-2" d="M139.99,302.05c.22.34.22,1.56.13,1.65-1.39,1.59-20.5-13.08-24.17-12.68.84-1.1,2.02-.95,3.21-.9,8.74.38,14.57,6.85,20.83,11.92Z"/><path class="cls-2" d="M200.29,267.14l-15.92-16.51c7.49,2.7,13.02,9.23,15.92,16.51Z"/><path class="cls-2" d="M246.29,262.42c.31,1.68-.42.96-1.3,1.32-3.61,1.49-7.38,2.76-11.08,3.98,1.75-4.85,7.88-5.7,12.38-5.3Z"/><path class="cls-2" d="M147.2,307.84l-13.26-1.2-.88-1.16c5.25-.71,9.53-.43,14.15,2.36Z"/><path class="cls-2" d="M115.36,288.37c-.13-.86,1.02-.8,1.65-1,2.7-.86,4.92-1.12,7.69-.35,1.05.29,1.52-.19,1.28,1.35h-10.62Z"/><path class="cls-5" d="M176.11,304.89c-8.9,16.31,16.89,26.72,19.5,6.52,4.31-.32,6.12,4.04,5.81,7.84-.72,8.81-11.04,15.97-19.56,13.79-3.25-.83-10.48-12.02-14-14.9-4.7-3.86-10.4-3.29-8.6-10.95,2.13-9.04,11.02-3.78,16.85-2.31Z"/><path class="cls-1" d="M231.3,334.03c.68.52,1.76,2.08,2.63,2.41.93.35,1.74-.35,2.49-.17,5.22,1.22,11.7,9.14,3.98,11.39-4.51,1.32-.65-1.99-2.75-2.58-6.58-1.87-9.79,4.99-15.82,4.66-3.6-.2-6.15-3.09-8.9-3.53-4.26-.68-11.35,3.54-13.11-1.65-1.09-3.21.88-2.28,1.81-3.07,2.05-1.73,6.62-6.57,9.55-6.55,1.13,0,2.26.87,3.44.54,1.04-.29,2.1-2.76,3.4-3.73,5.5-4.13,8.85-1.1,13.28,2.28Z"/><path class="cls-5" d="M251.01,313.14c1.38,16.98,19.89,6.31,18.03-6.51-.54-3.72-4.37-6.84-.95-9.15,5-3.38,11.34,5.65,11.71,10.23.59,7.38-5.28,7.76-9.6,11.34-5.48,4.55-10.88,17.61-19.48,11.2-4.38-3.26-8.96-17.16.3-17.11Z"/></svg>