<?xml version="1.0" encoding="UTF-8"?><svg id="Capa_2" xmlns="http://www.w3.org/2000/svg" viewBox="0 0 1080.9 899.08"><defs><style>.cls-1{fill:none;stroke:#000;stroke-miterlimit:10;stroke-width:94.6px;}</style></defs><g id="Logo"><path d="M115.67,518.12l-67.95-78.53v78.53H0v-161.76h45.38l67.95,79.7v-79.7h47.73v161.76h-45.38Z"/><path d="M194.2,379.4v-31.74h46.79v31.74h-46.79ZM194.2,518.12v-124.14h46.79v124.14h-46.79Z"/><path d="M360.89,518.12l-3.06-18.81c-4.86,6.74-11.25,12.03-19.16,15.87-7.92,3.84-16.26,5.76-25.04,5.76-14.42,0-25.24-4-32.45-11.99-7.21-7.99-10.81-19.52-10.81-34.56v-80.41h46.79v74.76c0,5.33,1.37,9.6,4.12,12.81,2.74,3.21,6.62,4.82,11.64,4.82,5.8,0,10.5-1.88,14.11-5.64,3.6-3.76,5.41-8.38,5.41-13.87v-72.88h46.79v124.14h-38.32Z"/><path d="M124.62,583.41c7.97,4.71,14.19,11.17,18.66,19.38,4.46,8.22,6.7,17.43,6.7,27.63v3.11c0,10.21-2.24,19.46-6.7,27.75-4.47,8.3-10.69,14.8-18.66,19.5-7.98,4.71-17.07,7.06-27.27,7.06h-39.47v53.11H5v-164.59h92.35c10.21,0,19.3,2.36,27.27,7.06ZM57.87,649.32h21.77c5.58,0,9.77-1.44,12.56-4.31,2.79-2.87,4.19-6.78,4.19-11.72v-1.91c0-5.1-1.4-9.05-4.19-11.84-2.79-2.79-6.98-4.19-12.56-4.19h-21.77v33.97Z"/><path d="M260.98,612.84c2.87.88,4.31,1.4,4.31,1.56v39.95h-15.31c-9.89,0-17.03,2.55-21.41,7.66-4.39,5.11-6.58,12.68-6.58,22.73v56.22h-47.61v-126.32h39l3.11,19.14c2.87-7.33,7.42-12.88,13.64-16.63,6.22-3.75,13.24-5.62,21.05-5.62,3.67,0,6.94.44,9.81,1.32Z"/><path d="M402,628.63c12.68,11.24,19.02,27.63,19.02,49.16s-6.34,37.92-19.02,49.16c-12.68,11.24-30.11,16.87-52.27,16.87s-39.56-5.58-52.15-16.75c-12.6-11.16-18.9-27.59-18.9-49.28s6.3-38.12,18.9-49.28c12.6-11.16,29.98-16.75,52.15-16.75s39.59,5.62,52.27,16.87ZM326.29,671.09v13.64c0,17.86,7.81,26.79,23.45,26.79s23.68-8.93,23.68-26.79v-13.64c0-18.02-7.89-27.03-23.68-27.03s-23.45,9.01-23.45,27.03Z"/><path d="M482.86,781.02c-6.94,6.78-18.06,10.17-33.37,10.17-4.15,0-9.25-.4-15.31-1.2-6.06-.8-10.84-1.84-14.36-3.11v-28.47h12.44c8.93,0,13.4-5.11,13.4-15.31v-128.47h47.61v133.26c0,15.31-3.47,26.35-10.41,33.13ZM445.66,599.8v-32.3h47.61v32.3h-47.61Z"/><path d="M641.95,628.03c12.2,10.85,18.3,27.43,18.3,49.76v8.13h-94.74c0,9.09,2.03,15.95,6.1,20.58,4.07,4.63,10.49,6.94,19.26,6.94,7.97,0,13.83-1.67,17.58-5.02,3.75-3.35,5.62-7.81,5.62-13.4h46.17c0,15.31-5.82,27.27-17.46,35.89-11.64,8.61-28.63,12.92-50.96,12.92-23.45,0-41.63-5.46-54.55-16.39-12.92-10.92-19.38-27.47-19.38-49.64s6.3-38.12,18.9-49.28c12.6-11.16,29.98-16.75,52.15-16.75s40.79,5.42,52.99,16.27ZM565.76,663.44h46.41c0-6.54-1.88-11.72-5.62-15.55-3.75-3.83-8.97-5.74-15.67-5.74-14.99,0-23.37,7.1-25.12,21.29Z"/><path d="M798.89,625.04c12.84,8.85,19.26,22.37,19.26,40.55h-46.17c0-14.35-7.82-21.53-23.44-21.53s-23.45,9.01-23.45,27.03v13.64c0,17.86,8.13,26.79,24.4,26.79s24.4-7.33,24.4-22.01h44.26c0,18.34-6.42,31.98-19.26,40.91-12.84,8.93-29.63,13.4-50.36,13.4-22.17,0-39.56-5.58-52.15-16.75-12.6-11.16-18.9-27.59-18.9-49.28s6.3-38.12,18.9-49.28c12.6-11.16,29.98-16.75,52.15-16.75,20.73,0,37.52,4.42,50.36,13.28Z"/><path d="M927,614.63v32.3h-26.79v48.09c0,5.74.96,9.93,2.87,12.56,1.91,2.63,5.42,3.95,10.53,3.95h13.4v27.99c-3.83,1.28-8.77,2.31-14.83,3.11-6.06.8-11.33,1.2-15.79,1.2-14.04,0-24.84-2.55-32.42-7.66-7.58-5.1-11.36-13.79-11.36-26.08v-63.16h-17.7v-32.3h19.62l10.29-38.28h35.41v38.28h26.79Z"/><line class="cls-1" x1="418.15" y1="266.61" x2="418.15" y2="17.66"/><polyline class="cls-1" points="403.62 298.64 635.36 66.9 1033.6 465.13 1033.6 851.78 418.15 851.78"/></g></svg>